<svg width="81" height="31" viewBox="0 0 81 31" fill="none" xmlns="http://www.w3.org/2000/svg">
<path d="M6.53116 18.2588H5.44263C4.81673 18.2588 4.39493 17.9459 4.1364 17.3064C3.94591 17.6057 3.56492 17.769 3.03427 17.769C2.10902 17.769 1.51033 16.9662 1.51033 15.8913C1.51033 14.7347 2.09541 13.9864 3.11591 13.9864C3.11591 13.9728 3.80984 13.9728 5.18411 13.9728V16.4083C5.18411 16.9254 5.44263 17.1975 5.97329 17.1975H6.53116V18.2588ZM3.34722 13.2652H2.38115V12.3672H3.34722V13.2652ZM4.06837 15.8097V14.7892H3.36083C2.92542 14.7892 2.59886 15.279 2.59886 15.8777C2.59886 16.422 2.91181 16.871 3.34722 16.871C3.79624 16.871 4.06837 16.4492 4.06837 15.8097ZM4.80312 13.2652H3.83706V12.3672H4.80312V13.2652Z" fill="#212951"/>
<path d="M7.98706 18.2587H6.32706V17.2246H7.98706V18.2587Z" fill="#212951"/>
<path d="M8.65378 19.5517H7.68771V18.6536H8.65378V19.5517ZM11.3615 18.259H7.87821V17.2249H8.58575C8.95313 17.2249 9.13001 16.98 9.13001 16.4766V14.7485H10.2185V16.4358C10.2185 16.7215 10.1777 16.98 10.0961 17.2249H11.3615V18.259ZM10.1097 19.5517H9.14362V18.6536H10.1097V19.5517Z" fill="#212951"/>
<path d="M16.5048 18.2588H15.2666C14.9536 18.6942 14.4638 18.9255 13.8243 18.9255C13.1712 18.9255 12.6813 18.6942 12.3548 18.2588H11.1574V17.2247H12.0282C12.0282 16.109 12.6677 15.415 13.7835 15.415C14.9128 15.415 15.5931 16.0954 15.5931 17.2247H16.5048V18.2588ZM14.5182 17.1975C14.5182 16.5852 14.2869 16.2723 13.8243 16.2723H13.7426C13.3481 16.2723 13.0895 16.6396 13.0895 17.1431C13.0895 17.6601 13.3481 18.0275 13.8107 18.0275C14.2461 18.0411 14.5182 17.7146 14.5182 17.1975Z" fill="#212951"/>
<path d="M20.8181 16.49C20.8181 17.0206 20.6548 17.4424 20.3282 17.769C20.0153 18.0955 19.5799 18.2588 19.0356 18.2588H16.2599V17.2247H17.362C17.2804 16.9934 17.2395 16.7621 17.2395 16.5036C17.2395 15.4287 17.9199 14.7483 18.9948 14.7483C19.5391 14.7483 19.9745 14.898 20.3146 15.2109C20.6548 15.5103 20.8181 15.9457 20.8181 16.49ZM18.7363 14.1632H17.7702V13.2788H18.7363V14.1632ZM19.7432 16.5308C19.7432 15.9185 19.5118 15.6191 19.0492 15.6191H18.9676C18.7499 15.6191 18.5866 15.7144 18.4505 15.9049C18.3553 16.0682 18.3009 16.2723 18.3009 16.49C18.3009 16.7485 18.3553 16.9526 18.4777 17.1159C18.6138 17.3064 18.7907 17.4016 19.0356 17.4016C19.2669 17.4016 19.4438 17.32 19.5663 17.1431C19.6887 16.9526 19.7432 16.7621 19.7432 16.5308ZM20.1922 14.1632H19.2261V13.2788H20.1922V14.1632Z" fill="#212951"/>
<path d="M24.7368 18.259H23.5394C23.3625 19.1162 22.6686 19.5381 21.4304 19.5381V18.6672C22.1379 18.6672 22.5053 18.3271 22.5053 17.6467V14.7485H23.5938V17.2249H24.7368V18.259Z" fill="#212951"/>
<path d="M26.7641 16.762C26.7641 17.1702 26.6417 17.5104 26.424 17.7825C26.1655 18.0955 25.8117 18.2588 25.3491 18.2588H24.3286V17.2247H25.1314C25.4987 17.2247 25.6756 16.9661 25.6756 16.4627V13.2651H26.7641V16.762Z" fill="#212951"/>
<path d="M28.601 18.2588H27.5125V13.2651H28.601V18.2588Z" fill="#212951"/>
<path d="M36.9555 18.2587H36.9011C36.2751 18.2587 35.8125 18.109 35.4996 17.796C35.2547 18.8437 34.1525 19.5377 32.9007 19.5377C31.3496 19.5377 30.125 18.3947 30.125 16.898V15.9727H31.2135V16.8028C31.2135 17.8369 31.8258 18.5444 32.9279 18.5444C33.7715 18.5444 34.5607 18.0137 34.5607 17.2926C34.5607 16.8844 34.2069 16.6123 33.8396 16.6123C33.7715 16.6123 33.7171 16.6259 33.6491 16.6395V15.7006C33.6491 15.687 33.7987 15.687 34.1253 15.687C34.9145 15.687 35.486 16.0408 35.867 16.7619C36.0574 17.1157 36.3296 17.2382 36.7922 17.2382H36.9691V18.2587H36.9555ZM32.7783 21.1569H31.8122V20.2724H32.7783V21.1569ZM34.2342 21.1569H33.2681V20.2724H34.2342V21.1569Z" fill="#212951"/>
<path d="M38.5202 18.2587H36.8602V17.2246H38.5202V18.2587Z" fill="#212951"/>
<path d="M40.0578 18.2587H38.3978V17.2246H40.0578V18.2587Z" fill="#212951"/>
<path d="M41.5817 18.2587H39.9217V17.2246H41.5817V18.2587Z" fill="#212951"/>
<path d="M43.1193 18.2587H41.4593V17.2246H43.1193V18.2587Z" fill="#212951"/>
<path d="M44.6568 18.2587H42.9968V17.2246H44.6568V18.2587Z" fill="#212951"/>
<path d="M46.1944 18.2587H44.5344V17.2246H46.1944V18.2587Z" fill="#212951"/>
<path d="M47.7183 18.2587H46.0583V17.2246H47.7183V18.2587Z" fill="#212951"/>
<path d="M49.2558 18.2587H47.5958V17.2246H49.2558V18.2587Z" fill="#212951"/>
<path d="M50.7934 18.2587H49.1334V17.2246H50.7934V18.2587Z" fill="#212951"/>
<path d="M52.984 16.7623C52.984 17.1705 52.8616 17.5107 52.6439 17.7828C52.3854 18.0958 52.0316 18.259 51.5826 18.259H50.6573V17.2249H51.3513C51.7186 17.2249 51.8955 16.9664 51.8955 16.463V14.7485H52.984V16.7623ZM52.9296 19.5517H51.9636V18.6536H52.9296V19.5517Z" fill="#212951"/>
<path d="M57.5695 18.259H53.678V17.2249H56.4945C56.4945 16.1364 55.9095 15.6602 54.5216 15.6602V14.7485C55.2019 14.7485 55.6781 14.7894 55.9639 14.8982C57.0116 15.2656 57.5695 16.0412 57.5695 17.2113V18.259Z" fill="#212951"/>
<path d="M1.51033 23.1846H3.57853C3.98673 23.1846 4.36771 23.2526 4.72148 23.3887C5.06165 23.5247 5.36099 23.7016 5.61952 23.9465C5.86444 24.1779 6.06854 24.4636 6.2046 24.7765C6.34067 25.1031 6.4087 25.4433 6.4087 25.8106V25.8242C6.4087 26.1916 6.34067 26.5454 6.2046 26.872C6.06854 27.1985 5.87804 27.4706 5.61952 27.7156C5.3746 27.9469 5.07526 28.1374 4.72148 28.2734C4.38132 28.4095 4.00034 28.4775 3.57853 28.4775H1.51033V23.1846ZM3.57853 27.4162C3.80984 27.4162 4.02755 27.3754 4.23165 27.3074C4.42214 27.2257 4.59903 27.1169 4.73509 26.9808C4.87116 26.8447 4.98001 26.6679 5.06165 26.4774C5.14329 26.2869 5.18411 26.0692 5.18411 25.8379V25.8242C5.18411 25.5929 5.14329 25.3752 5.06165 25.1847C4.98001 24.9942 4.87116 24.8174 4.73509 24.6813C4.59903 24.5452 4.42214 24.4364 4.23165 24.3547C4.04116 24.2731 3.82345 24.2323 3.57853 24.2323H2.6805V27.4298H3.57853V27.4162Z" fill="#212951"/>
<path d="M7.23871 23.1846H8.40887V28.4775H7.23871V23.1846Z" fill="#212951"/>
<path d="M12.0418 28.5592C11.6336 28.5592 11.2526 28.4912 10.9125 28.3551C10.5723 28.219 10.273 28.0285 10.0417 27.7836C9.79674 27.5387 9.60625 27.253 9.47018 26.9264C9.33412 26.5999 9.26608 26.2325 9.26608 25.8379V25.8243C9.26608 25.4433 9.33412 25.0895 9.47018 24.763C9.60625 24.4364 9.79674 24.1371 10.0553 23.8921C10.3002 23.6472 10.5995 23.4431 10.9261 23.3071C11.2663 23.1574 11.6336 23.0894 12.0418 23.0894C12.2731 23.0894 12.4908 23.103 12.6949 23.1438C12.8854 23.171 13.0759 23.2254 13.2392 23.2798C13.4025 23.3343 13.5658 23.4159 13.7018 23.5112C13.8515 23.6064 13.9876 23.7017 14.1236 23.8241L13.3889 24.7085C13.2936 24.6269 13.1848 24.5453 13.0895 24.4772C12.9943 24.4092 12.8854 24.3548 12.7766 24.3139C12.6677 24.2731 12.5453 24.2323 12.4228 24.2051C12.3004 24.1779 12.1643 24.1643 12.001 24.1643C11.7833 24.1643 11.5928 24.2051 11.4023 24.3003C11.2118 24.3956 11.0622 24.5044 10.9125 24.6541C10.7764 24.8038 10.6676 24.9807 10.5859 25.1712C10.5043 25.3753 10.4635 25.5794 10.4635 25.8107V25.8243C10.4635 26.0692 10.5043 26.2869 10.5859 26.491C10.6676 26.6951 10.7764 26.872 10.9125 27.0217C11.0622 27.1713 11.2254 27.2938 11.4159 27.3754C11.6064 27.4571 11.8241 27.4979 12.069 27.4979C12.5044 27.4979 12.8718 27.389 13.1712 27.1713V26.4094H12.001V25.4025H14.3005V27.702C14.0284 27.9333 13.7018 28.1374 13.3345 28.3007C12.9535 28.4776 12.5181 28.5592 12.0418 28.5592Z" fill="#212951"/>
<path d="M15.2258 23.1846H16.3959V28.4775H15.2258V23.1846Z" fill="#212951"/>
<path d="M18.709 24.2595H17.1035V23.1846H21.4848V24.2595H19.8792V28.4775H18.709V24.2595Z" fill="#212951"/>
<path d="M23.9476 23.1436H25.0225L27.2948 28.4773H26.0702L25.5804 27.2936H23.3353L22.8455 28.4773H21.6617L23.9476 23.1436ZM25.1722 26.2595L24.4646 24.545L23.7571 26.2595H25.1722Z" fill="#212951"/>
<path d="M27.8663 23.1846H29.0365V27.4298H31.6761V28.4775H27.8663V23.1846Z" fill="#212951"/>
<path d="M34.2342 23.1846H36.3024C36.7106 23.1846 37.0915 23.2526 37.4453 23.3887C37.7855 23.5247 38.0848 23.7016 38.3433 23.9465C38.5883 24.1779 38.7924 24.4636 38.9284 24.7765C39.0645 25.1031 39.1325 25.4433 39.1325 25.8106V25.8242C39.1325 26.1916 39.0645 26.5454 38.9284 26.872C38.7924 27.1985 38.6019 27.4706 38.3433 27.7156C38.0984 27.9469 37.7991 28.1374 37.4453 28.2734C37.1052 28.4095 36.7242 28.4775 36.3024 28.4775H34.2342V23.1846ZM36.3024 27.4162C36.5337 27.4162 36.7514 27.3754 36.9555 27.3074C37.146 27.2257 37.3229 27.1169 37.4589 26.9808C37.595 26.8447 37.7038 26.6679 37.7855 26.4774C37.8671 26.2869 37.9079 26.0692 37.9079 25.8379V25.8242C37.9079 25.5929 37.8671 25.3752 37.7855 25.1847C37.7038 24.9942 37.595 24.8174 37.4589 24.6813C37.3229 24.5452 37.146 24.4364 36.9555 24.3547C36.765 24.2731 36.5473 24.2323 36.3024 24.2323H35.4043V27.4298H36.3024V27.4162Z" fill="#212951"/>
<path d="M42.1124 28.5592C41.4048 28.5592 40.847 28.3687 40.4388 27.9741C40.0306 27.5795 39.8265 26.9944 39.8265 26.2052V23.1846H40.9966V26.178C40.9966 26.6134 41.0919 26.94 41.296 27.1577C41.5001 27.3754 41.7722 27.4843 42.1396 27.4843C42.4934 27.4843 42.7791 27.3754 42.9832 27.1713C43.1873 26.9536 43.2825 26.6406 43.2825 26.2188V23.1846H44.4527V26.178C44.4527 26.5862 44.3983 26.9264 44.2894 27.2257C44.1806 27.5251 44.0309 27.77 43.8268 27.9741C43.6227 28.1782 43.3778 28.3279 43.0921 28.4231C42.7927 28.5047 42.4662 28.5592 42.1124 28.5592Z" fill="#212951"/>
<path d="M45.378 23.1846H47.8271C48.4394 23.1846 48.9021 23.3342 49.215 23.6472C49.4599 23.8921 49.5824 24.1915 49.5824 24.5452V24.5588C49.5824 24.7085 49.5688 24.8446 49.528 24.9534C49.4871 25.0759 49.4463 25.1711 49.3783 25.2664C49.3103 25.3616 49.2422 25.4433 49.1606 25.5113C49.079 25.5793 48.9837 25.6474 48.8885 25.6882C49.2014 25.8106 49.4327 25.9603 49.6096 26.1644C49.7865 26.3685 49.8681 26.6406 49.8681 26.9944V27.008C49.8681 27.2529 49.8273 27.457 49.7321 27.6475C49.6368 27.8244 49.5008 27.9741 49.3375 28.0965C49.1606 28.219 48.9565 28.3143 48.7116 28.3687C48.4667 28.4231 48.1945 28.4639 47.8952 28.4639H45.378V23.1846ZM47.5958 25.3208C47.8544 25.3208 48.0585 25.28 48.2081 25.1847C48.3578 25.1031 48.4394 24.9534 48.4394 24.7629V24.7493C48.4394 24.5724 48.3714 24.4364 48.249 24.3411C48.1129 24.2459 47.9224 24.2051 47.6775 24.2051H46.5209V25.3208H47.5958ZM47.9088 27.457C48.1673 27.457 48.3714 27.4162 48.5075 27.321C48.6571 27.2257 48.7252 27.0761 48.7252 26.8856V26.8583C48.7252 26.6815 48.6571 26.5454 48.5211 26.4365C48.385 26.3277 48.1673 26.2869 47.868 26.2869H46.5209V27.457H47.9088Z" fill="#212951"/>
<path d="M52.4126 23.1436H53.4875L55.7598 28.4773H54.5352L54.0454 27.2936H51.8003L51.3104 28.4773H50.1267L52.4126 23.1436ZM53.6508 26.2595L52.9432 24.545L52.2357 26.2595H53.6508Z" fill="#212951"/>
<path d="M56.3857 23.1846H57.5558V28.4775H56.3857V23.1846Z" fill="#212951"/>
<path d="M66.8355 25.9061H61.5834V28.573H66.8355C73.8157 28.573 79.4761 22.9127 79.4761 15.9325C79.4761 8.95233 73.8157 3.29199 66.8355 3.29199H53.3514V5.95888H66.8355C72.3462 5.95888 76.8228 10.4218 76.8228 15.9461C76.8228 21.4704 72.3462 25.9061 66.8355 25.9061Z" fill="#2EABE3"/>
<path d="M66.8355 8.57129H58.3586V11.211H66.8355C69.4344 11.211 71.5434 13.32 71.5434 15.9188C71.5434 18.5177 69.4344 20.6267 66.8355 20.6267H64.1959V13.6874H61.5562V23.28H64.1959H66.8355C70.8903 23.28 74.1831 19.9872 74.1831 15.9325C74.1831 11.8777 70.8903 8.57129 66.8355 8.57129Z" fill="#2EABE3"/>
</svg>
