<svg width="241" height="25" viewBox="0 0 241 25" fill="none" xmlns="http://www.w3.org/2000/svg">
<g clip-path="url(#clip0_2319_5174)">
<path d="M106.022 11.3237L104.241 12.235H102.418V11.3237H106.016H106.022ZM104.912 16.5721H103.844V12.2487C103.844 11.9404 103.981 11.6937 104.248 11.5087C104.426 11.3854 104.632 11.3237 104.851 11.3237H106.427V12.235H104.912V16.5721Z" fill="#3F4C61"/>
<path d="M108.153 14.4344V15.6608H110.88V16.5721H108.092C107.756 16.5721 107.482 16.4488 107.276 16.1953C107.146 16.0308 107.084 15.8458 107.084 15.6471V12.2487C107.084 11.9404 107.222 11.6937 107.489 11.5087C107.667 11.3854 107.872 11.3237 108.092 11.3237H110.915L110.88 12.235H108.153V13.5163H110.661V14.4275H108.153V14.4344Z" fill="#3F4C61"/>
<path d="M113.23 15.6608H115.745V16.5721H113.169C112.826 16.5721 112.552 16.4419 112.353 16.1884C112.23 16.024 112.168 15.8458 112.168 15.6471V11.3237H113.23V15.6608Z" fill="#3F4C61"/>
<path d="M104.268 19.5112H104.912C105.324 19.5112 105.714 19.6003 106.098 19.7784C106.255 19.8607 106.386 19.9429 106.475 20.032L105.632 20.676C105.488 20.4842 105.282 20.3745 105.022 20.3403C104.981 20.3403 104.94 20.3403 104.906 20.3403H104.262C103.974 20.3403 103.741 20.4705 103.57 20.724C103.446 20.9021 103.385 21.1077 103.385 21.3269V22.4711C103.385 22.8 103.501 23.0604 103.741 23.2522C103.905 23.3893 104.083 23.4509 104.275 23.4509H105.515V21.9025H106.488V23.4372C106.488 23.725 106.365 23.9443 106.125 24.1155C105.961 24.2252 105.783 24.28 105.584 24.28H104.275C103.755 24.28 103.309 24.095 102.946 23.725C102.597 23.3756 102.425 22.9508 102.425 22.4643V21.3201C102.425 20.8062 102.61 20.3677 102.987 20.0183C103.343 19.6757 103.768 19.5112 104.268 19.5112Z" fill="#3F4C61"/>
<path d="M109.64 24.3418H108.996C108.475 24.3418 108.03 24.1568 107.667 23.7868C107.317 23.4374 107.146 23.0126 107.146 22.5261V21.2586C107.146 20.7515 107.331 20.313 107.701 19.9567C108.064 19.6142 108.503 19.4429 109.003 19.4429H109.647C110.168 19.4429 110.613 19.6279 110.976 19.9979C111.326 20.3473 111.497 20.7721 111.497 21.2586V22.5261C111.497 23.0331 111.312 23.4716 110.942 23.8279C110.579 24.1705 110.14 24.3418 109.64 24.3418ZM108.996 23.5128H109.64C109.928 23.5128 110.161 23.3826 110.339 23.1222C110.462 22.9441 110.524 22.7454 110.524 22.5261V21.2586C110.524 20.9297 110.408 20.6625 110.161 20.4706C110.003 20.3404 109.832 20.2788 109.64 20.2788H108.996C108.708 20.2788 108.475 20.409 108.297 20.6625C108.174 20.8406 108.105 21.0462 108.105 21.2654V22.533C108.105 22.8618 108.222 23.1222 108.462 23.3141C108.626 23.4511 108.804 23.5128 108.996 23.5128Z" fill="#3F4C61"/>
<path d="M117.657 14.4344V15.6608H120.384V16.5721H117.595C117.259 16.5721 116.985 16.4488 116.78 16.1953C116.649 16.0308 116.588 15.8458 116.588 15.6471V12.2487C116.588 11.9404 116.725 11.6937 116.992 11.5087C117.17 11.3854 117.376 11.3237 117.595 11.3237H120.37L120.384 12.235H117.657V13.5163H120.164V14.4275H117.657V14.4344Z" fill="#3F4C61"/>
<path d="M122.487 13.3176V14.5714C122.487 14.9277 122.617 15.2155 122.878 15.4347C123.056 15.5855 123.254 15.654 123.467 15.654H124.179C124.467 15.654 124.707 15.5581 124.906 15.3662C124.933 15.3388 124.954 15.3114 124.974 15.2909L125.899 15.9966C125.639 16.2432 125.241 16.4145 124.693 16.5173C124.501 16.5516 124.33 16.5721 124.172 16.5721H123.46C122.884 16.5721 122.398 16.3666 121.994 15.9623C121.61 15.5786 121.418 15.1127 121.418 14.5714V13.3176C121.418 12.7557 121.624 12.2761 122.028 11.8856C122.432 11.5087 122.905 11.3169 123.46 11.3169H124.172C124.625 11.3169 125.056 11.4128 125.481 11.6115C125.659 11.7006 125.796 11.7897 125.899 11.8856L124.974 12.5982C124.81 12.3926 124.584 12.2693 124.303 12.235C124.255 12.235 124.214 12.2282 124.179 12.2282H123.467C123.145 12.2282 122.891 12.372 122.693 12.653C122.556 12.8517 122.487 13.0709 122.487 13.3176Z" fill="#3F4C61"/>
<path d="M129.202 16.6403H128.496C127.92 16.6403 127.434 16.4348 127.03 16.0305C126.646 15.6468 126.454 15.1809 126.454 14.6396V13.2419C126.454 12.6801 126.66 12.2004 127.064 11.8099C127.468 11.4331 127.941 11.2412 128.496 11.2412H129.202C129.777 11.2412 130.264 11.4468 130.668 11.851C131.052 12.2347 131.243 12.7006 131.243 13.2419V14.6396C131.243 15.2015 131.038 15.6811 130.634 16.0716C130.229 16.4485 129.75 16.6403 129.202 16.6403ZM128.496 15.729H129.202C129.524 15.729 129.777 15.5852 129.976 15.3042C130.113 15.1055 130.175 14.8863 130.175 14.6465V13.2487C130.175 12.8856 130.044 12.5978 129.777 12.3786C129.606 12.2347 129.414 12.1662 129.202 12.1662H128.496C128.174 12.1662 127.92 12.3032 127.722 12.5841C127.585 12.7828 127.516 13.0021 127.516 13.2487V14.6465C127.516 15.0028 127.646 15.2905 127.907 15.5098C128.085 15.6605 128.283 15.729 128.496 15.729Z" fill="#3F4C61"/>
<path d="M136.937 12.4064L135.759 15.8048H134.635L133.456 12.4064L133.052 16.5722H131.915L132.401 12.2008C132.449 11.8103 132.634 11.5362 132.956 11.3786C133.093 11.317 133.23 11.2896 133.381 11.2896C133.703 11.2896 133.943 11.4129 134.107 11.6527C134.148 11.7144 134.183 11.776 134.21 11.8446L135.197 14.7154L136.183 11.8446C136.286 11.5568 136.499 11.3855 136.8 11.3101C136.875 11.2896 136.944 11.2827 137.012 11.2827C137.348 11.2827 137.609 11.4129 137.8 11.6664C137.91 11.8171 137.972 11.9953 137.992 12.194L138.479 16.5653H137.341L136.937 12.3995V12.4064Z" fill="#3F4C61"/>
<path d="M144.131 12.4064L142.953 15.8048H141.829L140.651 12.4064L140.246 16.5722H139.109L139.596 12.2008C139.644 11.8103 139.829 11.5362 140.151 11.3786C140.288 11.317 140.425 11.2896 140.575 11.2896C140.897 11.2896 141.137 11.4129 141.302 11.6527C141.343 11.7144 141.377 11.776 141.404 11.8446L142.391 14.7154L143.378 11.8446C143.48 11.5568 143.693 11.3855 143.994 11.3101C144.07 11.2896 144.138 11.2827 144.207 11.2827C144.542 11.2827 144.803 11.4129 144.995 11.6664C145.104 11.8171 145.166 11.9953 145.186 12.194L145.673 16.5653H144.536L144.131 12.3995V12.4064Z" fill="#3F4C61"/>
<path d="M146.447 11.3237H147.516V14.5783C147.516 14.9414 147.646 15.2292 147.913 15.4484C148.085 15.5923 148.277 15.6608 148.489 15.6608H149.058C149.38 15.6608 149.633 15.5238 149.832 15.2429C149.969 15.0442 150.037 14.8249 150.037 14.5783V11.3237H151.099V14.5783C151.099 15.1401 150.894 15.6197 150.49 16.0103C150.085 16.3871 149.606 16.5789 149.058 16.5789H148.489C147.913 16.5789 147.427 16.3734 147.023 15.9692C146.639 15.5855 146.447 15.1195 146.447 14.5783V11.3237Z" fill="#3F4C61"/>
<path d="M153.121 11.2896C153.511 11.2896 153.826 11.5157 154.066 11.9679C154.101 12.0432 154.142 12.1255 154.183 12.2145L155.663 15.6815V11.3238H156.725V15.6815C156.725 15.9761 156.581 16.2159 156.3 16.4077C156.101 16.5448 155.882 16.6064 155.656 16.6064C155.265 16.6064 154.95 16.3803 154.71 15.9281C154.676 15.8528 154.635 15.7705 154.594 15.6815L153.114 12.2145V16.5722H152.052V12.2145C152.052 11.9199 152.196 11.6801 152.477 11.4882C152.675 11.3581 152.895 11.2896 153.121 11.2896Z" fill="#3F4C61"/>
<path d="M158.828 11.3237H157.766V16.5721H158.828V11.3237Z" fill="#3F4C61"/>
<path d="M160.685 13.3176V14.5714C160.685 14.9277 160.815 15.2155 161.075 15.4347C161.254 15.5855 161.452 15.654 161.665 15.654H162.377C162.665 15.654 162.905 15.5581 163.104 15.3662C163.131 15.3388 163.152 15.3114 163.172 15.2909L164.097 15.9966C163.837 16.2432 163.439 16.4145 162.891 16.5173C162.699 16.5516 162.528 16.5721 162.37 16.5721H161.658C161.082 16.5721 160.596 16.3666 160.192 15.9623C159.808 15.5786 159.616 15.1127 159.616 14.5714V13.3176C159.616 12.7557 159.822 12.2761 160.226 11.8856C160.63 11.5087 161.11 11.3169 161.658 11.3169H162.37C162.823 11.3169 163.254 11.4128 163.679 11.6115C163.857 11.7006 163.994 11.7897 164.097 11.8856L163.172 12.5982C163.008 12.3926 162.782 12.2693 162.501 12.235C162.453 12.235 162.412 12.2282 162.377 12.2282H161.665C161.343 12.2282 161.089 12.372 160.89 12.653C160.753 12.8517 160.685 13.0709 160.685 13.3176Z" fill="#3F4C61"/>
<path d="M168.249 15.8729H165.611L165.461 14.9616H167.927L167.023 12.3854L165.55 16.5718H164.412L165.961 12.1799C166.187 11.5701 166.543 11.2617 167.023 11.2549C167.502 11.2549 167.859 11.5701 168.078 12.1799L169.633 16.5718H168.496L168.242 15.8729H168.249Z" fill="#3F4C61"/>
<path d="M172.627 11.3237L171.099 12.235H169.284V11.3237H172.627ZM171.771 16.5721H170.702V12.2487C170.702 11.9404 170.839 11.6937 171.106 11.5087C171.284 11.3854 171.49 11.3237 171.709 11.3237H173.285V12.235H171.771V16.5721Z" fill="#3F4C61"/>
<path d="M175.115 11.3237H174.053V16.5721H175.115V11.3237Z" fill="#3F4C61"/>
<path d="M178.671 16.6403H177.965C177.389 16.6403 176.903 16.4348 176.499 16.0305C176.115 15.6468 175.923 15.1809 175.923 14.6396V13.2419C175.923 12.6801 176.129 12.2004 176.533 11.8099C176.937 11.4331 177.41 11.2412 177.965 11.2412H178.671C179.246 11.2412 179.733 11.4468 180.137 11.851C180.52 12.2347 180.712 12.7006 180.712 13.2419V14.6396C180.712 15.2015 180.507 15.6811 180.103 16.0716C179.698 16.4485 179.219 16.6403 178.671 16.6403ZM177.965 15.729H178.671C178.993 15.729 179.246 15.5852 179.445 15.3042C179.582 15.1055 179.643 14.8863 179.643 14.6465V13.2487C179.643 12.8856 179.513 12.5978 179.246 12.3786C179.075 12.2347 178.883 12.1662 178.671 12.1662H177.965C177.643 12.1662 177.389 12.3032 177.191 12.5841C177.054 12.7828 176.985 13.0021 176.985 13.2487V14.6465C176.985 15.0028 177.115 15.2905 177.376 15.5098C177.554 15.6605 177.752 15.729 177.965 15.729Z" fill="#3F4C61"/>
<path d="M182.631 11.2896C183.021 11.2896 183.336 11.5157 183.576 11.9679C183.611 12.0432 183.652 12.1255 183.693 12.2145L185.173 15.6815V11.3238H186.235V15.6815C186.235 15.9761 186.091 16.2159 185.81 16.4077C185.611 16.5448 185.399 16.6064 185.166 16.6064C184.775 16.6064 184.46 16.3803 184.22 15.9281C184.186 15.8528 184.145 15.7705 184.104 15.6815L182.624 12.2145V16.5722H181.562V12.2145C181.562 11.9199 181.706 11.6801 181.987 11.4882C182.185 11.3581 182.405 11.2896 182.631 11.2896Z" fill="#3F4C61"/>
<path d="M187.057 12.8242C187.057 12.3994 187.256 12.0432 187.653 11.7485C188.037 11.4676 188.496 11.3237 189.03 11.3237H189.736C190.168 11.3237 190.586 11.4197 190.99 11.6184C191.154 11.7074 191.291 11.7965 191.394 11.8924L190.462 12.605C190.311 12.3926 190.099 12.2693 189.839 12.2419C189.804 12.2419 189.77 12.2419 189.743 12.2419H189.037C188.688 12.2419 188.427 12.3378 188.249 12.5296C188.174 12.6255 188.133 12.7283 188.133 12.8242C188.133 13.0024 188.325 13.16 188.708 13.2902C188.832 13.3313 189.03 13.3861 189.318 13.4614C190.01 13.6396 190.496 13.8177 190.777 13.989C191.23 14.2631 191.463 14.6262 191.463 15.0784C191.463 15.4964 191.257 15.8527 190.853 16.1473C190.449 16.4351 189.976 16.5789 189.421 16.5789H188.715C188.263 16.5789 187.831 16.483 187.406 16.2843C187.228 16.1953 187.091 16.1062 186.988 16.0103L187.907 15.3045C188.071 15.5101 188.297 15.6266 188.585 15.6608C188.633 15.6608 188.674 15.6677 188.708 15.6677H189.414C189.791 15.6677 190.072 15.5718 190.264 15.3731C190.346 15.284 190.387 15.1812 190.387 15.0853C190.387 14.8797 190.195 14.7153 189.811 14.5783C189.756 14.5577 189.421 14.4618 188.804 14.2973C188.098 14.1055 187.612 13.8794 187.358 13.6122C187.153 13.3929 187.05 13.1326 187.05 12.8311" fill="#3F4C61"/>
<path d="M197.814 15.8729H195.21L195.128 14.9616H197.492L196.588 12.3854L195.114 16.5718H193.977L195.526 12.1799C195.752 11.5701 196.108 11.2617 196.588 11.2549C197.067 11.2549 197.423 11.5701 197.643 12.1799L199.198 16.5718H198.061L197.807 15.8729H197.814Z" fill="#3F4C61"/>
<path d="M200.863 11.2896C201.254 11.2896 201.569 11.5157 201.809 11.9679C201.843 12.0432 201.884 12.1255 201.925 12.2145L203.405 15.6815V11.3238H204.467V15.6815C204.467 15.9761 204.323 16.2159 204.042 16.4077C203.843 16.5448 203.624 16.6064 203.398 16.6064C203.008 16.6064 202.692 16.3803 202.453 15.9281C202.418 15.8528 202.377 15.7705 202.336 15.6815L200.856 12.2145V16.5722H199.794V12.2145C199.794 11.9199 199.938 11.6801 200.219 11.4882C200.418 11.3581 200.637 11.2896 200.863 11.2896Z" fill="#3F4C61"/>
<path d="M205.46 12.2487C205.46 11.9335 205.598 11.6869 205.865 11.5019C206.043 11.3854 206.242 11.3237 206.461 11.3237H207.9C208.475 11.3237 208.962 11.5293 209.366 11.9335C209.75 12.3172 209.941 12.7831 209.941 13.3244V14.5783C209.941 15.1401 209.736 15.6197 209.332 16.0103C208.927 16.3871 208.448 16.5789 207.9 16.5789H205.46V12.2556V12.2487ZM208.873 14.5783V13.3244C208.873 12.9613 208.742 12.6735 208.475 12.4543C208.304 12.3104 208.112 12.2419 207.9 12.2419H206.522V15.6677H207.9C208.222 15.6677 208.475 15.5238 208.674 15.2429C208.811 15.0442 208.873 14.8249 208.873 14.5851" fill="#3F4C61"/>
<path d="M212.908 12.2487C212.908 11.9335 213.045 11.6869 213.312 11.5019C213.491 11.3854 213.689 11.3237 213.909 11.3237H215.347C215.923 11.3237 216.409 11.5293 216.814 11.9335C217.197 12.3172 217.389 12.7831 217.389 13.3244V14.5783C217.389 15.1401 217.184 15.6197 216.779 16.0103C216.375 16.3871 215.902 16.5789 215.347 16.5789H212.908V12.2556V12.2487ZM216.32 14.5783V13.3244C216.32 12.9613 216.19 12.6735 215.923 12.4543C215.752 12.3104 215.56 12.2419 215.347 12.2419H213.97V15.6677H215.347C215.669 15.6677 215.923 15.5238 216.122 15.2429C216.259 15.0442 216.32 14.8249 216.32 14.5851" fill="#3F4C61"/>
<path d="M219.328 11.3237H218.266V16.5721H219.328V11.3237Z" fill="#3F4C61"/>
<path d="M222.151 11.3237H222.857C223.309 11.3237 223.741 11.4197 224.166 11.6184C224.344 11.7074 224.481 11.7965 224.583 11.8924L223.658 12.605C223.494 12.3995 223.275 12.2761 222.987 12.2419C222.939 12.2419 222.898 12.2419 222.864 12.2419H222.158C221.843 12.2419 221.589 12.3789 221.391 12.6598C221.254 12.8585 221.192 13.0778 221.192 13.3244V14.5783C221.192 14.9346 221.322 15.2223 221.582 15.4416C221.761 15.5923 221.959 15.6608 222.172 15.6608H223.542V13.9548H224.611V15.6471C224.611 15.9623 224.474 16.209 224.207 16.394C224.028 16.5173 223.823 16.5721 223.61 16.5721H222.172C221.596 16.5721 221.11 16.3666 220.705 15.9623C220.322 15.5786 220.13 15.1127 220.13 14.5714V13.3176C220.13 12.7489 220.335 12.2761 220.747 11.8787C221.137 11.5087 221.61 11.3169 222.158 11.3169" fill="#3F4C61"/>
<path d="M226.639 11.3237H225.577V16.5721H226.639V11.3237Z" fill="#3F4C61"/>
<path d="M230.647 11.3237L229.181 12.235H227.399V11.3237H230.647ZM229.887 16.5721H228.818V12.2487C228.818 11.9404 228.955 11.6937 229.222 11.5087C229.4 11.3854 229.606 11.3237 229.825 11.3237H231.401V12.235H229.887V16.5721Z" fill="#3F4C61"/>
<path d="M234.792 15.8729H231.997L232.435 14.9616H234.47L233.566 12.3854L232.093 16.5718H230.955L232.504 12.1799C232.73 11.5701 233.086 11.2617 233.566 11.2549C234.046 11.2549 234.402 11.5701 234.621 12.1799L236.176 16.5718H235.039L234.786 15.8729H234.792Z" fill="#3F4C61"/>
<path d="M237.848 15.6608H240.363V16.5721H237.787C237.444 16.5721 237.17 16.4419 236.971 16.1884C236.848 16.024 236.786 15.8458 236.786 15.6471V11.3237H237.848V15.6608Z" fill="#3F4C61"/>
<path d="M114.334 23.3071L115.67 19.5044H116.704L115.3 23.4921C115.094 24.047 114.772 24.328 114.334 24.3348C113.895 24.3348 113.573 24.047 113.374 23.4921L111.963 19.5044H112.997L114.334 23.3071Z" fill="#3F4C61"/>
<path d="M118.184 22.3341V23.4509H120.658L120.671 24.28H118.122C117.814 24.28 117.567 24.1635 117.383 23.9374C117.266 23.7866 117.204 23.6222 117.204 23.4441V20.3608C117.204 20.0799 117.328 19.8538 117.567 19.6894C117.732 19.5797 117.917 19.5181 118.116 19.5181H120.637V20.3471H118.17V21.5119H120.452V22.3409H118.17L118.184 22.3341Z" fill="#3F4C61"/>
<path d="M122.782 20.3334V24.2731H121.816V20.3471C121.816 20.0594 121.939 19.8333 122.179 19.6688C122.343 19.5592 122.521 19.5044 122.72 19.5044H124.029C124.611 19.5044 125.084 19.6757 125.433 20.0251C125.735 20.3197 125.879 20.6897 125.879 21.1214V21.3064C125.879 21.8477 125.659 22.2725 125.228 22.5739C125.063 22.6836 124.885 22.7726 124.686 22.8343L125.988 24.28H124.782L123.583 22.9302H122.473L122.487 22.1012H124.022C124.419 22.1012 124.686 21.9641 124.823 21.6969C124.878 21.5873 124.906 21.4571 124.906 21.3132V21.1282C124.906 20.7514 124.734 20.5047 124.392 20.3951C124.282 20.3609 124.152 20.3403 124.022 20.3403H122.775L122.782 20.3334Z" fill="#3F4C61"/>
<path d="M127.653 19.4771C128.009 19.4771 128.29 19.6826 128.51 20.0937C128.544 20.1622 128.578 20.2376 128.619 20.3198L129.962 23.4716V19.5113H130.928V23.4716C130.928 23.7388 130.798 23.958 130.545 24.1293C130.366 24.2527 130.168 24.3143 129.955 24.3143C129.599 24.3143 129.318 24.1088 129.099 23.6977C129.065 23.6292 129.03 23.5538 128.989 23.4716L127.646 20.3198V24.2801H126.68V20.3198C126.68 20.0526 126.81 19.8333 127.064 19.662C127.242 19.5387 127.441 19.4771 127.653 19.4771Z" fill="#3F4C61"/>
<path d="M136.238 20.4911L135.163 23.5744H134.142L133.066 20.4911L132.703 24.2732H131.668L132.114 20.2993C132.155 19.943 132.326 19.6963 132.621 19.5524C132.744 19.4976 132.874 19.4702 133.004 19.4702C133.292 19.4702 133.518 19.5798 133.669 19.7991C133.703 19.8539 133.737 19.9087 133.765 19.9772L134.662 22.5877L135.56 19.9772C135.656 19.7169 135.848 19.5593 136.122 19.4976C136.19 19.4839 136.252 19.4702 136.32 19.4702C136.622 19.4702 136.862 19.5867 137.033 19.8196C137.129 19.9567 137.191 20.1143 137.211 20.2993L137.657 24.2732H136.622L136.259 20.4911H136.238Z" fill="#3F4C61"/>
<path d="M139.294 22.3341V23.4509H141.768L141.747 24.28H139.232C138.924 24.28 138.677 24.1635 138.492 23.9374C138.376 23.7866 138.314 23.6222 138.314 23.4441V20.3608C138.314 20.0799 138.438 19.8538 138.677 19.6894C138.842 19.5797 139.027 19.5181 139.226 19.5181H141.774L141.754 20.3471H139.28V21.5119H141.562V22.3409H139.28L139.294 22.3341Z" fill="#3F4C61"/>
<path d="M143.892 19.4771C144.248 19.4771 144.529 19.6826 144.748 20.0937C144.782 20.1622 144.817 20.2376 144.858 20.3198L146.201 23.4716V19.5113H147.167V23.4716C147.167 23.7388 147.036 23.958 146.783 24.1293C146.605 24.2527 146.406 24.3143 146.194 24.3143C145.837 24.3143 145.556 24.1088 145.337 23.6977C145.303 23.6292 145.269 23.5538 145.228 23.4716L143.885 20.3198V24.2801H142.919V20.3198C142.919 20.0526 143.049 19.8333 143.302 19.662C143.48 19.5387 143.679 19.4771 143.892 19.4771Z" fill="#3F4C61"/>
<path d="M150.154 19.5112L149.544 20.3403H147.831V19.5112H150.154ZM150.092 24.28H149.119V20.354C149.119 20.0731 149.243 19.847 149.482 19.6825C149.647 19.5729 149.832 19.5112 150.031 19.5112H151.463V20.3403H150.085V24.28H150.092Z" fill="#3F4C61"/>
<path d="M155.025 20.3334V24.2731H154.059V20.3471C154.059 20.0594 154.183 19.8333 154.423 19.6688C154.587 19.5592 154.765 19.5044 154.964 19.5044H156.272C156.855 19.5044 157.328 19.6757 157.677 20.0251C157.979 20.3197 158.122 20.6897 158.122 21.1214V21.3064C158.122 21.8477 157.903 22.2725 157.472 22.5739C157.307 22.6836 157.129 22.7726 156.93 22.8343L158.232 24.28H157.026L155.827 22.9302H154.69L154.834 22.1012H156.272C156.67 22.1012 156.937 21.9641 157.074 21.6969C157.129 21.5873 157.156 21.4571 157.156 21.3132V21.1282C157.156 20.7514 156.985 20.5047 156.642 20.3951C156.526 20.3609 156.403 20.3403 156.272 20.3403H155.025V20.3334Z" fill="#3F4C61"/>
<path d="M159.849 22.3341V23.4509H162.322L162.35 24.28H159.794C159.486 24.28 159.239 24.1635 159.054 23.9374C158.938 23.7866 158.876 23.6222 158.876 23.4441V20.3608C158.876 20.0799 158.999 19.8538 159.239 19.6894C159.404 19.5797 159.589 19.5181 159.787 19.5181H162.343L162.316 20.3471H159.842V21.5119H162.124V22.3409H159.842L159.849 22.3341Z" fill="#3F4C61"/>
<path d="M165.111 19.5112H165.755C166.166 19.5112 166.557 19.6003 166.94 19.7784C167.098 19.8607 167.228 19.9429 167.317 20.032L166.475 20.676C166.331 20.4842 166.125 20.3745 165.865 20.3403C165.824 20.3403 165.783 20.3403 165.748 20.3403H165.104C164.816 20.3403 164.59 20.4705 164.412 20.724C164.289 20.9021 164.227 21.1077 164.227 21.3269V22.4711C164.227 22.8 164.344 23.0604 164.584 23.2522C164.748 23.3893 164.926 23.4509 165.118 23.4509H166.358V21.9025H167.331V23.4372C167.331 23.725 167.208 23.9443 166.968 24.1155C166.803 24.2252 166.625 24.28 166.427 24.28H165.118C164.597 24.28 164.152 24.095 163.789 23.725C163.439 23.3756 163.268 22.9508 163.268 22.4643V21.3201C163.268 20.8062 163.453 20.3677 163.83 20.0183C164.186 19.6757 164.618 19.5112 165.111 19.5112Z" fill="#3F4C61"/>
<path d="M168.153 19.5112H169.126V22.4643C169.126 22.7932 169.25 23.0604 169.489 23.2522C169.647 23.3824 169.818 23.4441 170.01 23.4441H170.531C170.819 23.4441 171.051 23.3139 171.23 23.0604C171.353 22.8823 171.421 22.6767 171.421 22.4575V19.5044H172.388V22.4575C172.388 22.9645 172.203 23.403 171.833 23.7593C171.469 24.1019 171.031 24.2731 170.531 24.2731H170.01C169.489 24.2731 169.044 24.0881 168.681 23.7182C168.331 23.3687 168.153 22.9439 168.153 22.4575V19.5044V19.5112Z" fill="#3F4C61"/>
<path d="M174.169 23.4509H176.457L176.471 24.28H174.114C173.806 24.28 173.559 24.1635 173.374 23.9305C173.258 23.7866 173.203 23.6222 173.203 23.4441V19.5181H174.169V23.4578V23.4509Z" fill="#3F4C61"/>
<path d="M180.383 23.6429H177.862L178.143 22.8139H180.096L179.273 20.4706L177.937 24.2733H176.903L178.307 20.2856C178.513 19.7306 178.835 19.4497 179.273 19.4429C179.712 19.4429 180.034 19.7306 180.233 20.2856L181.644 24.2733H180.61L180.383 23.6429Z" fill="#3F4C61"/>
<path d="M183.994 19.5112L183.22 20.3403H181.329V19.5112H183.994ZM183.59 24.28H182.617V20.354C182.617 20.0731 182.74 19.847 182.98 19.6825C183.145 19.5729 183.33 19.5112 183.528 19.5112H184.96V20.3403H183.583V24.28H183.59Z" fill="#3F4C61"/>
<path d="M187.92 24.3418H187.276C186.755 24.3418 186.31 24.1568 185.947 23.7868C185.598 23.4374 185.426 23.0126 185.426 22.5261V21.2586C185.426 20.7515 185.611 20.313 185.981 19.9567C186.344 19.6142 186.783 19.4429 187.283 19.4429H187.927C188.448 19.4429 188.893 19.6279 189.256 19.9979C189.606 20.3473 189.777 20.7721 189.777 21.2586V22.5261C189.777 23.0331 189.592 23.4716 189.222 23.8279C188.859 24.1705 188.42 24.3418 187.92 24.3418ZM187.276 23.5128H187.92C188.208 23.5128 188.441 23.3826 188.619 23.1222C188.742 22.9441 188.804 22.7454 188.804 22.5261V21.2586C188.804 20.9297 188.688 20.6625 188.448 20.4706C188.29 20.3404 188.119 20.2788 187.927 20.2788H187.283C186.995 20.2788 186.762 20.409 186.584 20.6625C186.461 20.8406 186.392 21.0462 186.392 21.2654V22.533C186.392 22.8618 186.509 23.1222 186.749 23.3141C186.913 23.4511 187.091 23.5128 187.283 23.5128" fill="#3F4C61"/>
<path d="M191.511 20.3334V24.2731H190.544V20.3471C190.544 20.0594 190.668 19.8333 190.908 19.6688C191.072 19.5592 191.25 19.5044 191.449 19.5044H192.758C193.34 19.5044 193.813 19.6757 194.162 20.0251C194.464 20.3197 194.607 20.6897 194.607 21.1214V21.3064C194.607 21.8477 194.388 22.2725 193.957 22.5739C193.792 22.6836 193.614 22.7726 193.415 22.8343L194.717 24.28H193.511L192.312 22.9302H191.339L191.326 22.1012H192.758C193.155 22.1012 193.422 21.9641 193.559 21.6969C193.614 21.5873 193.641 21.4571 193.641 21.3132V21.1282C193.641 20.7514 193.47 20.5047 193.128 20.3951C193.018 20.3609 192.888 20.3403 192.758 20.3403H191.511V20.3334Z" fill="#3F4C61"/>
<path d="M204.207 23.6429H201.644L201.863 22.8139H203.912L203.09 20.4706L201.754 24.2733H200.719L202.124 20.2856C202.329 19.7306 202.651 19.4497 203.09 19.4429C203.528 19.4429 203.85 19.7306 204.049 20.2856L205.46 24.2733H204.426L204.2 23.6429H204.207Z" fill="#3F4C61"/>
<path d="M205.974 19.5112H206.947V22.4643C206.947 22.7932 207.071 23.0604 207.31 23.2522C207.468 23.3824 207.639 23.4441 207.831 23.4441H208.352C208.64 23.4441 208.873 23.3139 209.051 23.0604C209.174 22.8823 209.243 22.6767 209.243 22.4575V19.5044H210.209V22.4575C210.209 22.9645 210.024 23.403 209.654 23.7593C209.291 24.1019 208.852 24.2731 208.352 24.2731H207.831C207.31 24.2731 206.865 24.0881 206.502 23.7182C206.153 23.3687 205.974 22.9439 205.974 22.4575V19.5044V19.5112Z" fill="#3F4C61"/>
<path d="M213.415 19.5112L212.579 20.3403H210.825V19.5112H213.415ZM213.086 24.28H212.113V20.354C212.113 20.0731 212.237 19.847 212.477 19.6825C212.641 19.5729 212.826 19.5112 213.025 19.5112H214.457V20.3403H213.08V24.28H213.086Z" fill="#3F4C61"/>
<path d="M216.122 22.0258L215.868 21.5051H218.198V19.5112H219.171V24.2731H218.198V22.3341H216.122V24.2731H215.156V19.5112H216.122V22.0258Z" fill="#3F4C61"/>
<path d="M222.398 24.3418H221.754C221.233 24.3418 220.788 24.1568 220.424 23.7868C220.075 23.4374 219.904 23.0126 219.904 22.5261V21.2586C219.904 20.7515 220.089 20.313 220.459 19.9567C220.822 19.6142 221.26 19.4429 221.761 19.4429H222.405C222.925 19.4429 223.371 19.6279 223.741 19.9979C224.09 20.3473 224.261 20.7721 224.261 21.2586V22.5261C224.261 23.0331 224.076 23.4716 223.706 23.8279C223.343 24.1705 222.905 24.3418 222.405 24.3418M221.761 23.5128H222.405C222.692 23.5128 222.932 23.3826 223.103 23.1222C223.227 22.9441 223.288 22.7454 223.288 22.5261V21.2586C223.288 20.9297 223.172 20.6625 222.932 20.4706C222.775 20.3404 222.603 20.2788 222.405 20.2788H221.761C221.473 20.2788 221.24 20.409 221.062 20.6625C220.938 20.8406 220.87 21.0462 220.87 21.2654V22.533C220.87 22.8618 220.986 23.1222 221.226 23.3141C221.391 23.4511 221.569 23.5128 221.761 23.5128Z" fill="#3F4C61"/>
<path d="M225.988 20.3334V24.2731H225.022V20.3471C225.022 20.0594 225.145 19.8333 225.385 19.6688C225.55 19.5592 225.728 19.5044 225.926 19.5044H227.235C227.817 19.5044 228.29 19.6757 228.64 20.0251C228.941 20.3197 229.085 20.6897 229.085 21.1214V21.3064C229.085 21.8477 228.866 22.2725 228.434 22.5739C228.27 22.6836 228.091 22.7726 227.893 22.8343L229.195 24.28H227.989L226.79 22.9302H225.687L225.529 22.1012H227.235C227.632 22.1012 227.9 21.9641 228.037 21.6969C228.091 21.5873 228.119 21.4571 228.119 21.3132V21.1282C228.119 20.7514 227.948 20.5047 227.605 20.3951C227.495 20.3609 227.365 20.3403 227.235 20.3403H225.981L225.988 20.3334Z" fill="#3F4C61"/>
<path d="M230.901 19.5112H229.935V24.28H230.901V19.5112Z" fill="#3F4C61"/>
<path d="M234.039 19.5112L233.408 20.3403H231.586V19.5112H234.032H234.039ZM233.854 24.28H232.881V20.354C232.881 20.0731 233.004 19.847 233.244 19.6825C233.408 19.5729 233.593 19.5112 233.792 19.5112H235.224V20.3403H233.847V24.28H233.854Z" fill="#3F4C61"/>
<path d="M237.841 21.5804L239.177 19.5112H240.212L238.801 21.7723C238.629 22.0326 238.479 22.2108 238.335 22.3204V24.2868H237.362V22.3341C237.197 22.2176 237.033 22.0326 236.875 21.7791L235.471 19.5181H236.505L237.841 21.5873V21.5804Z" fill="#3F4C61"/>
<path d="M197.197 21.5804L198.533 19.5112H199.568L198.157 21.7723C197.985 22.0326 197.835 22.2108 197.691 22.3204V24.2868H196.718V22.3341C196.553 22.2176 196.389 22.0326 196.231 21.7791L194.827 19.5181H195.861L197.197 21.5873V21.5804Z" fill="#3F4C61"/>
<path d="M81.8704 5.19157C81.055 2.86201 79.6505 1.07373 77.2113 1.07373C74.7721 1.07373 73.3675 2.86201 72.5521 5.19157L65.7347 24.7119H70.7365L71.819 21.6013L73.2305 17.5451L77.2113 6.10284L83.6861 24.7119H88.6878L81.8704 5.19157Z" fill="#9D805F"/>
<path d="M104.926 3.23188V2.86189C104.926 2.80707 104.954 2.77281 105.015 2.77281H106.077C106.132 2.77281 106.166 2.80022 106.166 2.86189V5.52718C106.166 5.69847 106.201 5.8218 106.269 5.89032C106.338 5.95883 106.44 5.99309 106.584 5.99309H106.852C107.084 5.99309 107.201 6.17123 107.201 6.52067C107.201 6.72622 107.174 6.86325 107.119 6.93177C107.064 7.00713 106.975 7.04139 106.852 7.04139H105.947C105.666 7.04139 105.44 6.99343 105.282 6.90436C105.125 6.81529 105.015 6.644 104.967 6.39734C104.837 6.50011 104.693 6.58233 104.522 6.63029C104.351 6.68511 104.179 6.70566 103.994 6.70566C103.768 6.70566 103.549 6.6714 103.35 6.60974C103.145 6.54807 102.967 6.4453 102.809 6.31512C102.651 6.18494 102.528 6.00679 102.439 5.79439C102.35 5.58199 102.302 5.32163 102.302 5.0133C102.302 4.66387 102.35 4.3761 102.453 4.15C102.556 3.92389 102.686 3.7389 102.85 3.60186C103.015 3.46483 103.206 3.36891 103.412 3.3141C103.624 3.25928 103.837 3.23188 104.056 3.23188H104.926ZM103.165 2.15617C103.111 2.15617 103.076 2.12876 103.076 2.06709V1.21749C103.076 1.16268 103.104 1.12842 103.165 1.12842H104.035C104.09 1.12842 104.125 1.15582 104.125 1.21749V2.06709C104.125 2.12191 104.097 2.15617 104.035 2.15617H103.165ZM104.214 5.65051C104.433 5.65051 104.604 5.58884 104.734 5.46551C104.865 5.34218 104.926 5.14349 104.926 4.88312V4.28703H104.234C104.015 4.28703 103.837 4.34184 103.707 4.44462C103.576 4.54739 103.508 4.73924 103.508 5.02016C103.508 5.25996 103.576 5.4244 103.707 5.52033C103.837 5.61625 104.008 5.66421 104.207 5.66421M104.495 2.16987C104.44 2.16987 104.405 2.14246 104.405 2.0808V1.21749C104.405 1.16268 104.433 1.12842 104.495 1.12842H105.372C105.426 1.12842 105.461 1.15582 105.461 1.21749V2.06709C105.461 2.12191 105.433 2.15617 105.372 2.15617H104.495V2.16987Z" fill="#344B61"/>
<path d="M107.9 3.47188C107.9 3.41707 107.927 3.38281 107.989 3.38281H109.03C109.085 3.38281 109.119 3.41022 109.119 3.47188V5.52053C109.133 5.66441 109.195 5.78089 109.304 5.86311C109.421 5.94533 109.578 5.98644 109.777 5.98644H109.976C110.092 5.98644 110.181 6.02755 110.236 6.10977C110.291 6.19199 110.325 6.32217 110.325 6.50717C110.325 6.8566 110.209 7.03474 109.976 7.03474C109.743 7.03474 109.565 7.00734 109.4 6.95937C109.236 6.90456 109.106 6.78808 108.996 6.60309C108.907 6.78808 108.77 6.90456 108.585 6.95937C108.407 7.01419 108.153 7.03474 107.838 7.03474H106.941C106.824 7.03474 106.735 7.00048 106.68 6.92512C106.625 6.84975 106.591 6.71957 106.591 6.52087C106.591 6.32217 106.619 6.18514 106.673 6.10292C106.728 6.0207 106.817 5.97959 106.941 5.97959H107.482C107.667 5.97959 107.783 5.92478 107.831 5.822C107.879 5.71237 107.9 5.53423 107.9 5.27387V3.47188ZM107.352 8.81617C107.297 8.81617 107.263 8.78877 107.263 8.7271V7.8775C107.263 7.82268 107.29 7.78842 107.352 7.78842H108.222C108.277 7.78842 108.311 7.81583 108.311 7.8775V8.7271C108.311 8.78191 108.284 8.81617 108.222 8.81617H107.352ZM108.688 8.81617C108.633 8.81617 108.599 8.78877 108.599 8.7271V7.8775C108.599 7.82268 108.626 7.78842 108.688 7.78842H109.565C109.62 7.78842 109.654 7.81583 109.654 7.8775V8.7271C109.654 8.78191 109.626 8.81617 109.565 8.81617H108.688Z" fill="#344B61"/>
<path d="M112.689 7.09623C112.381 7.09623 112.1 7.05512 111.84 6.97976C111.579 6.90439 111.367 6.76735 111.189 6.56866C111.127 6.67143 111.038 6.75365 110.935 6.82217C110.832 6.88383 110.723 6.93179 110.606 6.96605C110.497 7.00031 110.38 7.02087 110.27 7.02772C110.161 7.03457 110.065 7.04142 109.976 7.04142C109.859 7.04142 109.77 7.00716 109.716 6.93179C109.661 6.85643 109.626 6.72624 109.626 6.5344C109.626 6.34255 109.654 6.19867 109.702 6.11645C109.757 6.03423 109.846 5.99312 109.969 5.99312H110.223C110.353 5.99312 110.476 5.9383 110.586 5.82868C110.695 5.71905 110.75 5.5135 110.764 5.21203V5.04074C110.764 4.4652 110.928 4.01984 111.257 3.71152C111.586 3.40319 112.059 3.24561 112.675 3.24561C113.292 3.24561 113.731 3.41004 114.08 3.73892C114.429 4.0678 114.601 4.56112 114.601 5.21888C114.601 5.25999 114.601 5.3011 114.601 5.33536C114.601 5.36962 114.601 5.41073 114.601 5.44499C114.614 5.63683 114.669 5.77387 114.765 5.86294C114.861 5.95201 114.991 5.99997 115.142 5.99997H115.396C115.512 5.99997 115.601 6.04108 115.656 6.1233C115.711 6.20552 115.745 6.3357 115.745 6.5207C115.745 6.87013 115.628 7.04827 115.396 7.04827C115.293 7.04827 115.183 7.04827 115.073 7.03457C114.964 7.02772 114.854 7.00716 114.751 6.9729C114.649 6.93865 114.546 6.89068 114.457 6.82217C114.361 6.75365 114.279 6.66458 114.21 6.5481C114.039 6.75365 113.82 6.90439 113.552 6.98661C113.285 7.06883 112.997 7.10994 112.689 7.10994M112.689 4.30076C112.216 4.30076 111.977 4.59538 111.977 5.17777C111.977 5.50665 112.038 5.73961 112.155 5.86979C112.271 5.99997 112.449 6.06163 112.689 6.06163C112.929 6.06163 113.114 5.99997 113.23 5.86979C113.347 5.73961 113.402 5.50665 113.402 5.17777C113.402 4.59538 113.162 4.30076 112.689 4.30076Z" fill="#344B61"/>
<path d="M115.43 7.03472C115.306 7.03472 115.217 7.00046 115.163 6.92509C115.108 6.84972 115.08 6.71269 115.08 6.50029C115.08 6.31529 115.108 6.17826 115.169 6.09604C115.224 6.01382 115.313 5.97271 115.43 5.97271H116.101C116.005 5.78086 115.964 5.5205 115.964 5.19162C115.964 4.80793 116.019 4.49275 116.129 4.24609C116.238 3.99258 116.382 3.79389 116.56 3.64315C116.738 3.49241 116.944 3.38964 117.177 3.32112C117.41 3.25946 117.65 3.2252 117.89 3.2252C118.129 3.2252 118.39 3.25946 118.623 3.32112C118.856 3.38279 119.061 3.49241 119.239 3.64315C119.417 3.79389 119.554 3.99258 119.664 4.24609C119.767 4.49961 119.822 4.81478 119.822 5.19847C119.822 5.54791 119.774 5.84253 119.671 6.08234C119.575 6.31529 119.438 6.50714 119.267 6.64417C119.095 6.78806 118.89 6.88398 118.657 6.94565C118.424 7.00046 118.17 7.03472 117.896 7.03472H115.443H115.43ZM116.759 2.50578C116.704 2.50578 116.67 2.47837 116.67 2.4167V1.5671C116.67 1.51229 116.697 1.47803 116.759 1.47803H117.629C117.684 1.47803 117.718 1.50543 117.718 1.5671V2.4167C117.718 2.47152 117.691 2.50578 117.629 2.50578H116.759ZM117.883 4.2872C117.41 4.2872 117.177 4.56812 117.177 5.13681C117.177 5.47254 117.239 5.69865 117.355 5.82883C117.472 5.95216 117.65 6.02067 117.89 6.02067C118.129 6.02067 118.301 5.95901 118.424 5.83568C118.54 5.71235 118.602 5.48624 118.602 5.16422C118.602 4.58183 118.369 4.29406 117.896 4.29406M118.109 2.51263C118.054 2.51263 118.02 2.48522 118.02 2.42356V1.57395C118.02 1.51914 118.047 1.48488 118.109 1.48488H118.986C119.041 1.48488 119.075 1.51229 119.075 1.57395V2.42356C119.075 2.47837 119.047 2.51263 118.986 2.51263H118.109Z" fill="#344B61"/>
<path d="M121.192 3.47188C121.192 3.41707 121.219 3.38281 121.281 3.38281H122.343C122.398 3.38281 122.432 3.41022 122.432 3.47188V5.52053C122.446 5.66441 122.508 5.78089 122.617 5.86311C122.727 5.94533 122.884 5.98644 123.09 5.98644H123.282C123.398 5.98644 123.487 6.02755 123.542 6.10977C123.597 6.19199 123.631 6.32217 123.631 6.50717C123.631 6.8566 123.515 7.03474 123.282 7.03474C123.09 7.03474 122.925 7.01419 122.788 6.97993C122.651 6.93882 122.528 6.86345 122.432 6.74012V6.87715C122.432 7.53491 122.302 8.02138 122.048 8.33656C121.795 8.65173 121.356 8.80932 120.747 8.80932H120.349C120.294 8.80932 120.26 8.78191 120.26 8.72025V7.84324C120.26 7.78842 120.288 7.75417 120.349 7.75417H120.541C120.699 7.75417 120.822 7.72676 120.904 7.6788C120.993 7.63084 121.055 7.55547 121.103 7.45955C121.144 7.36362 121.171 7.24714 121.185 7.11011C121.199 6.97308 121.206 6.81549 121.206 6.6305V3.45133L121.192 3.47188Z" fill="#344B61"/>
<path d="M123.275 7.03454C123.158 7.03454 123.069 7.01399 123.015 6.97288C122.96 6.93177 122.925 6.84955 122.925 6.73307C122.925 6.66455 122.932 6.58233 122.946 6.50011C122.96 6.41104 122.98 6.33567 123.008 6.26031C123.035 6.18494 123.069 6.12327 123.11 6.06846C123.152 6.01365 123.206 5.99309 123.268 5.99309H123.57C123.713 5.99309 123.823 5.95883 123.885 5.89032C123.953 5.8218 123.987 5.70532 123.987 5.52718V1.21749C123.987 1.16268 124.015 1.12842 124.077 1.12842H125.139C125.193 1.12842 125.228 1.15582 125.228 1.21749V5.93828C125.228 6.31512 125.152 6.58918 124.995 6.76733C124.837 6.94547 124.577 7.03454 124.214 7.03454H123.275Z" fill="#344B61"/>
<path d="M126.358 1.13527H127.4C127.448 1.13527 127.489 1.17638 127.489 1.22434V6.95232C127.489 7.00028 127.448 7.04139 127.4 7.04139H126.358C126.31 7.04139 126.269 7.00028 126.269 6.95232V1.21749C126.269 1.16953 126.31 1.12842 126.358 1.12842V1.13527Z" fill="#344B61"/>
<path d="M133.011 3.23188V2.86189C133.011 2.80707 133.039 2.77281 133.1 2.77281H134.162C134.217 2.77281 134.251 2.80022 134.251 2.86189V5.52718C134.251 5.69847 134.286 5.8218 134.354 5.89032C134.423 5.95883 134.525 5.99309 134.669 5.99309H134.936C135.169 5.99309 135.286 6.17123 135.286 6.52067C135.286 6.72622 135.258 6.86325 135.204 6.93177C135.149 7.00713 135.06 7.04139 134.936 7.04139H134.032C133.751 7.04139 133.525 6.99343 133.367 6.90436C133.21 6.81529 133.1 6.644 133.052 6.39734C132.922 6.50011 132.778 6.58233 132.607 6.63029C132.436 6.68511 132.264 6.70566 132.079 6.70566C131.853 6.70566 131.634 6.6714 131.435 6.60974C131.23 6.54807 131.052 6.4453 130.894 6.31512C130.736 6.18494 130.613 6.00679 130.524 5.79439C130.435 5.58199 130.387 5.32163 130.387 5.0133C130.387 4.66387 130.435 4.3761 130.538 4.15C130.64 3.92389 130.771 3.7389 130.935 3.60186C131.1 3.46483 131.291 3.36891 131.497 3.3141C131.709 3.25928 131.922 3.23188 132.141 3.23188H133.011ZM131.25 2.15617C131.195 2.15617 131.161 2.12876 131.161 2.06709V1.21749C131.161 1.16268 131.189 1.12842 131.25 1.12842H132.12C132.175 1.12842 132.209 1.15582 132.209 1.21749V2.06709C132.209 2.12191 132.182 2.15617 132.12 2.15617H131.25ZM132.299 5.65051C132.518 5.65051 132.689 5.58884 132.819 5.46551C132.949 5.34218 133.011 5.14349 133.011 4.88312V4.28703H132.319C132.1 4.28703 131.922 4.34184 131.792 4.44462C131.661 4.54739 131.593 4.73924 131.593 5.02016C131.593 5.25996 131.661 5.4244 131.792 5.52033C131.922 5.61625 132.093 5.66421 132.292 5.66421M132.579 2.16987C132.525 2.16987 132.49 2.14246 132.49 2.0808V1.21749C132.49 1.16268 132.518 1.12842 132.579 1.12842H133.456C133.511 1.12842 133.546 1.15582 133.546 1.21749V2.06709C133.546 2.12191 133.518 2.15617 133.456 2.15617H132.579V2.16987Z" fill="#344B61"/>
<path d="M137.711 7.09623C137.403 7.09623 137.122 7.05512 136.862 6.97976C136.601 6.90439 136.389 6.76735 136.211 6.56866C136.129 6.68513 136.033 6.77421 135.93 6.83587C135.82 6.89754 135.711 6.9455 135.601 6.9729C135.491 7.00716 135.382 7.02087 135.279 7.02772C135.176 7.02772 135.08 7.03457 134.998 7.03457C134.882 7.03457 134.793 7.00031 134.738 6.92494C134.683 6.84957 134.649 6.71939 134.649 6.52755C134.649 6.322 134.676 6.18496 134.731 6.1096C134.786 6.03423 134.875 5.99312 134.998 5.99312H135.252C135.382 5.99312 135.498 5.9383 135.608 5.82868C135.718 5.71905 135.779 5.5135 135.793 5.21203V5.04074C135.793 4.69816 135.848 4.41039 135.957 4.18428C136.067 3.95133 136.204 3.76633 136.382 3.6293C136.56 3.49226 136.766 3.38949 136.992 3.33468C137.218 3.27986 137.458 3.24561 137.711 3.24561C137.965 3.24561 138.212 3.27986 138.444 3.34153C138.677 3.40319 138.883 3.51282 139.061 3.66356C139.239 3.81429 139.376 4.01299 139.486 4.2665C139.589 4.52001 139.644 4.83519 139.644 5.21888C139.644 5.56832 139.596 5.86979 139.493 6.1096C139.397 6.35626 139.26 6.5481 139.089 6.69884C138.917 6.84957 138.712 6.95235 138.479 7.01401C138.246 7.07568 137.992 7.10994 137.718 7.10994M137.718 4.30076C137.239 4.30076 136.999 4.59538 136.999 5.17777C136.999 5.50665 137.06 5.73961 137.184 5.86979C137.307 5.99997 137.485 6.06163 137.725 6.06163C137.965 6.06163 138.15 5.99997 138.266 5.86979C138.383 5.73961 138.438 5.50665 138.438 5.17777C138.438 4.59538 138.198 4.30076 137.725 4.30076" fill="#344B61"/>
<path d="M141.247 8.81603C141.192 8.81603 141.158 8.78862 141.158 8.72696V7.84995C141.158 7.79513 141.185 7.76088 141.247 7.76088H142.247C142.37 7.76088 142.48 7.74717 142.576 7.73347C142.672 7.71291 142.754 7.67866 142.816 7.62384C142.877 7.56903 142.925 7.50051 142.967 7.40459C143.001 7.30867 143.021 7.18534 143.021 7.0346H142.185C141.617 7.0346 141.185 6.89757 140.877 6.6235C140.575 6.34943 140.418 5.88352 140.418 5.22576C140.418 4.85577 140.473 4.5406 140.582 4.28709C140.692 4.03358 140.829 3.82803 141.007 3.67044C141.185 3.51285 141.391 3.40322 141.617 3.33471C141.843 3.26619 142.083 3.23193 142.329 3.23193C142.576 3.23193 142.83 3.26619 143.062 3.32786C143.295 3.38952 143.501 3.49915 143.672 3.64303C143.844 3.78692 143.987 3.99247 144.083 4.23913C144.186 4.49264 144.234 4.80096 144.234 5.17095V5.97945H144.823C145.056 5.97945 145.173 6.15074 145.173 6.50017C145.173 6.71942 145.145 6.86331 145.091 6.93183C145.036 7.00034 144.947 7.0346 144.823 7.0346H144.234V7.19904C144.234 7.74032 144.097 8.15142 143.816 8.41178C143.542 8.679 143.11 8.80918 142.521 8.80918H141.254L141.247 8.81603ZM142.323 4.28709C142.09 4.28709 141.911 4.36931 141.788 4.5269C141.665 4.69134 141.603 4.91059 141.603 5.18465C141.603 5.49983 141.672 5.71223 141.809 5.82186C141.946 5.93148 142.124 5.97945 142.343 5.97945H143.015V5.13669C143.015 4.56115 142.788 4.28024 142.329 4.28024" fill="#344B61"/>
<path d="M146.838 3.32107C147.119 3.33477 147.379 3.36218 147.605 3.41014C147.831 3.4581 148.023 3.54032 148.181 3.6568C148.338 3.77327 148.462 3.93771 148.551 4.13641C148.64 4.33511 148.681 4.59547 148.681 4.9175V5.54785C148.681 5.68489 148.743 5.79451 148.859 5.86988C148.975 5.94525 149.14 5.98636 149.339 5.98636H149.53C149.647 5.98636 149.736 6.02747 149.791 6.10969C149.846 6.19191 149.88 6.32209 149.88 6.50708C149.88 6.86337 149.763 7.03466 149.53 7.03466C149.284 7.03466 149.078 7.0004 148.907 6.93874C148.736 6.87707 148.592 6.74004 148.482 6.54134C148.379 6.72634 148.235 6.85652 148.05 6.92504C147.866 7.0004 147.639 7.03466 147.372 7.03466H144.817C144.7 7.03466 144.611 6.99355 144.556 6.91133C144.501 6.82911 144.467 6.68523 144.467 6.47968C144.467 6.28098 144.494 6.1508 144.549 6.08228C144.604 6.01377 144.693 5.97951 144.817 5.97951H146.762C146.899 5.97951 147.016 5.97266 147.098 5.9521C147.187 5.9384 147.249 5.90414 147.297 5.86303C147.345 5.82192 147.372 5.76025 147.386 5.68489C147.4 5.60952 147.406 5.51359 147.406 5.39712V4.99972C147.406 4.76676 147.345 4.60233 147.221 4.49955C147.098 4.39678 146.899 4.34196 146.625 4.34196H145.324C145.269 4.34196 145.234 4.31456 145.234 4.25289V3.54717C145.234 3.50606 145.255 3.46495 145.296 3.41699C145.337 3.36903 145.378 3.32792 145.406 3.29366L147.263 1.10113C147.297 1.06002 147.338 1.05317 147.372 1.07372L148.092 1.68352C148.14 1.71778 148.146 1.75889 148.126 1.80685L146.824 3.31421L146.838 3.32107Z" fill="#344B61"/>
<path d="M149.921 3.93079C150.127 3.72524 150.353 3.5608 150.613 3.43062C150.873 3.30043 151.182 3.23877 151.559 3.23877C151.935 3.23877 152.264 3.29358 152.525 3.40321C152.785 3.51284 153.004 3.66357 153.169 3.85542C153.333 4.04726 153.456 4.28022 153.532 4.54058C153.607 4.80095 153.641 5.08872 153.641 5.39704V5.53407C153.662 5.67111 153.724 5.78073 153.826 5.86295C153.936 5.94517 154.087 5.98628 154.292 5.98628H154.491C154.608 5.98628 154.697 6.02739 154.751 6.10961C154.806 6.19183 154.84 6.32201 154.84 6.50701C154.84 6.85644 154.724 7.03458 154.491 7.03458C154.244 7.03458 154.039 7.00033 153.854 6.93181C153.676 6.86329 153.525 6.71941 153.408 6.50016C153.292 6.70571 153.128 6.84959 152.915 6.91811C152.703 6.99347 152.456 7.02773 152.161 7.02773H149.524C149.407 7.02773 149.318 6.98662 149.263 6.91125C149.208 6.83589 149.174 6.69885 149.174 6.51386C149.174 6.32886 149.202 6.19183 149.25 6.10276C149.304 6.01369 149.393 5.97258 149.517 5.97258H151.675C151.812 5.97258 151.929 5.95888 152.011 5.94517C152.1 5.92462 152.168 5.89036 152.216 5.8424C152.264 5.79444 152.299 5.72592 152.319 5.6437C152.34 5.56148 152.346 5.45185 152.346 5.32852C152.346 5.18464 152.333 5.04761 152.305 4.92428C152.278 4.79409 152.23 4.68447 152.155 4.58855C152.086 4.49262 151.997 4.41725 151.881 4.36244C151.771 4.30763 151.627 4.28022 151.463 4.28022C151.278 4.28022 151.113 4.31448 150.969 4.38985C150.825 4.46522 150.688 4.55429 150.572 4.66391C150.531 4.70502 150.49 4.70502 150.449 4.67076L149.935 4.05412C149.88 3.9993 149.873 3.95819 149.907 3.92393" fill="#344B61"/>
<path d="M154.491 7.03454C154.375 7.03454 154.286 7.01399 154.231 6.97288C154.176 6.93177 154.142 6.84955 154.142 6.73307C154.142 6.66455 154.148 6.58233 154.162 6.50011C154.176 6.41104 154.196 6.33567 154.224 6.26031C154.251 6.18494 154.286 6.12327 154.327 6.06846C154.368 6.01365 154.423 5.99309 154.484 5.99309H154.786C154.93 5.99309 155.039 5.95883 155.101 5.89032C155.169 5.8218 155.204 5.70532 155.204 5.52718V1.21749C155.204 1.16268 155.231 1.12842 155.293 1.12842H156.355C156.41 1.12842 156.444 1.15582 156.444 1.21749V5.93828C156.444 6.31512 156.368 6.58918 156.211 6.76733C156.053 6.94547 155.793 7.03454 155.43 7.03454H154.491Z" fill="#344B61"/>
<path d="M157.574 1.13527H158.616C158.664 1.13527 158.705 1.17638 158.705 1.22434V6.95232C158.705 7.00028 158.664 7.04139 158.616 7.04139H157.574C157.526 7.04139 157.485 7.00028 157.485 6.95232V1.21749C157.485 1.16953 157.526 1.12842 157.574 1.12842V1.13527Z" fill="#344B61"/>
<path d="M160.452 8.81601C160.397 8.81601 160.363 8.78861 160.363 8.72694V7.84993C160.363 7.79512 160.39 7.76086 160.452 7.76086H161.452C161.569 7.76086 161.672 7.75401 161.768 7.7403C161.857 7.7266 161.939 7.69234 162.007 7.63753C162.076 7.58272 162.124 7.5142 162.165 7.41828C162.199 7.32235 162.22 7.19217 162.22 7.03458H161.857C161.507 7.03458 161.199 7.01403 160.925 6.97292C160.651 6.93181 160.418 6.84959 160.219 6.71941C160.027 6.58923 159.876 6.40423 159.774 6.17128C159.671 5.93832 159.623 5.62314 159.623 5.2326C159.623 4.86261 159.678 4.54743 159.787 4.29392C159.897 4.04041 160.034 3.83486 160.212 3.67728C160.39 3.51969 160.596 3.41006 160.822 3.34154C161.048 3.27303 161.288 3.23877 161.535 3.23877C161.781 3.23877 162.035 3.27303 162.268 3.33469C162.501 3.39636 162.706 3.50598 162.877 3.64987C163.049 3.79375 163.193 3.9993 163.289 4.24596C163.391 4.49947 163.439 4.8078 163.439 5.17779V7.19902C163.439 7.7403 163.302 8.1514 163.021 8.41177C162.747 8.67898 162.316 8.80916 161.726 8.80916H160.459L160.452 8.81601ZM161.528 4.28707C161.288 4.28707 161.11 4.36929 160.986 4.52688C160.863 4.69132 160.801 4.91057 160.801 5.18464C160.801 5.49981 160.87 5.71222 161.007 5.82184C161.144 5.93147 161.322 5.97943 161.541 5.97943H162.213V5.13668C162.213 4.56114 161.987 4.28022 161.528 4.28022" fill="#344B61"/>
<path d="M171.634 5.88345C171.702 5.81494 171.737 5.69846 171.737 5.52717V3.47167C171.737 3.41686 171.764 3.3826 171.826 3.3826H172.888C172.943 3.3826 172.977 3.41001 172.977 3.47167V5.94512C172.977 6.32196 172.901 6.59603 172.744 6.77417C172.586 6.95231 172.319 7.04138 171.942 7.04138H167.434C167.071 7.04138 166.81 6.95231 166.653 6.77417C166.495 6.59603 166.42 6.32196 166.42 5.94512V4.02666C166.42 3.97184 166.447 3.93758 166.509 3.93758H167.571C167.626 3.93758 167.66 3.96499 167.66 4.02666V5.52717C167.66 5.69846 167.694 5.82179 167.763 5.88345C167.831 5.95197 167.934 5.98623 168.078 5.98623H171.326C171.476 5.98623 171.586 5.95197 171.654 5.88345M168.592 3.01261C168.537 3.01261 168.503 2.9852 168.503 2.92354V2.07393C168.503 2.01912 168.53 1.98486 168.592 1.98486H169.462C169.517 1.98486 169.551 2.01227 169.551 2.07393V2.92354C169.551 2.97835 169.524 3.01261 169.462 3.01261H168.592ZM169.928 3.01261C169.873 3.01261 169.839 2.9852 169.839 2.92354V2.07393C169.839 2.01912 169.866 1.98486 169.928 1.98486H170.805C170.86 1.98486 170.894 2.01227 170.894 2.07393V2.92354C170.894 2.97835 170.866 3.01261 170.805 3.01261H169.928Z" fill="#344B61"/>
<path d="M176.368 5.98624H177.156C177.3 5.98624 177.403 5.95198 177.471 5.88346C177.54 5.81495 177.574 5.69847 177.574 5.52033V1.21749C177.574 1.16268 177.602 1.12842 177.663 1.12842H178.725C178.78 1.12842 178.814 1.15582 178.814 1.21749V5.93828C178.814 6.31512 178.739 6.58918 178.581 6.76733C178.424 6.94547 178.164 7.03454 177.8 7.03454H173.758C173.703 7.03454 173.669 7.00714 173.669 6.94547V6.06846C173.669 6.01365 173.696 5.97939 173.758 5.97939H175.142V2.44394C175.142 2.38912 175.169 2.35486 175.231 2.35486H176.293C176.348 2.35486 176.382 2.38227 176.382 2.44394V5.98624H176.368Z" fill="#344B61"/>
<path d="M179.849 1.21749C179.849 1.16268 179.876 1.12842 179.938 1.12842H180.98C181.034 1.12842 181.069 1.15582 181.069 1.21749V5.52033C181.069 5.69162 181.103 5.81495 181.171 5.88346C181.24 5.95198 181.343 5.98624 181.487 5.98624H181.72C181.836 5.98624 181.925 6.02735 181.98 6.10957C182.035 6.19179 182.069 6.33567 182.069 6.52752C182.069 6.73307 182.042 6.8701 181.987 6.93862C181.932 7.00028 181.843 7.03454 181.72 7.03454H180.863C180.5 7.03454 180.24 6.94547 180.089 6.76733C179.931 6.58918 179.856 6.31512 179.856 5.93828V1.21749H179.849Z" fill="#344B61"/>
<path d="M182.432 3.39637C182.432 3.34156 182.459 3.3073 182.521 3.3073H183.563C183.617 3.3073 183.652 3.33471 183.652 3.39637V3.65674C183.919 3.54026 184.207 3.43748 184.522 3.35526C184.837 3.27304 185.166 3.23193 185.508 3.23193C186.214 3.23193 186.755 3.40322 187.119 3.73896C187.482 4.07469 187.667 4.60226 187.667 5.32854V5.43131C187.667 5.46557 187.667 5.49983 187.66 5.52724C187.674 5.66427 187.735 5.78075 187.852 5.86297C187.968 5.94519 188.126 5.9863 188.331 5.9863H188.523C188.64 5.9863 188.729 6.02741 188.784 6.10963C188.838 6.19185 188.873 6.32203 188.873 6.50702C188.873 6.85646 188.756 7.0346 188.523 7.0346C188.277 7.0346 188.057 7.00034 187.879 6.92497C187.694 6.84961 187.55 6.70572 187.447 6.48647C187.317 6.70572 187.139 6.84961 186.899 6.92497C186.66 7.00034 186.338 7.0346 185.94 7.0346H184.261C184.172 7.0346 184.083 7.0346 183.987 7.0346C183.891 7.0346 183.802 7.02775 183.713 7.01405C183.624 7.00034 183.549 6.98664 183.48 6.95923C183.412 6.93868 183.364 6.90442 183.33 6.85646C183.234 6.93868 183.117 6.98664 182.994 7.00719C182.864 7.02775 182.706 7.0346 182.514 7.0346H181.74C181.624 7.0346 181.535 7.00034 181.48 6.92497C181.425 6.84961 181.391 6.71257 181.391 6.51388C181.391 6.29462 181.418 6.15074 181.466 6.08222C181.514 6.0137 181.61 5.97945 181.733 5.97945H182.083C182.172 5.97945 182.24 5.95889 182.288 5.92463C182.336 5.89037 182.37 5.83556 182.391 5.7739C182.412 5.71223 182.425 5.63001 182.432 5.54094C182.432 5.44502 182.439 5.34909 182.439 5.23947V3.40322L182.432 3.39637ZM185.269 4.28024C184.981 4.28024 184.693 4.32135 184.412 4.40357C184.131 4.48579 183.878 4.57486 183.652 4.67078V5.64372C183.652 5.70538 183.652 5.76704 183.652 5.82186C183.652 5.87667 183.645 5.93148 183.638 5.97945H185.365C185.577 5.97945 185.755 5.97945 185.892 5.95889C186.029 5.94519 186.132 5.91778 186.207 5.86982C186.283 5.82186 186.331 5.75334 186.358 5.65057C186.385 5.55464 186.399 5.41761 186.399 5.23947C186.399 5.08188 186.379 4.94485 186.344 4.82152C186.31 4.69819 186.248 4.59541 186.166 4.51319C186.084 4.43097 185.968 4.36931 185.824 4.3282C185.68 4.28709 185.495 4.26653 185.276 4.26653" fill="#344B61"/>
<path d="M188.51 7.03472C188.393 7.03472 188.304 7.00046 188.249 6.92509C188.194 6.84972 188.16 6.72639 188.16 6.5414C188.16 6.17141 188.277 5.98641 188.51 5.98641H189.051C189.195 5.98641 189.304 5.95216 189.366 5.88364C189.434 5.81512 189.469 5.69865 189.469 5.5205V3.46501C189.469 3.41019 189.496 3.37593 189.558 3.37593H190.599C190.654 3.37593 190.688 3.40334 190.688 3.46501V5.93845C190.688 6.31529 190.613 6.58936 190.455 6.7675C190.298 6.94565 190.044 7.03472 189.681 7.03472H188.516H188.51ZM188.907 2.50578C188.852 2.50578 188.818 2.47837 188.818 2.4167V1.5671C188.818 1.51229 188.845 1.47803 188.907 1.47803H189.777C189.832 1.47803 189.866 1.50543 189.866 1.5671V2.4167C189.866 2.47152 189.839 2.50578 189.777 2.50578H188.907ZM190.243 2.50578C190.188 2.50578 190.154 2.47837 190.154 2.4167V1.5671C190.154 1.51229 190.181 1.47803 190.243 1.47803H191.12C191.175 1.47803 191.209 1.50543 191.209 1.5671V2.4167C191.209 2.47152 191.182 2.50578 191.12 2.50578H190.243Z" fill="#344B61"/>
<path d="M194.244 5.98624H195.032C195.176 5.98624 195.286 5.95198 195.347 5.88346C195.416 5.81495 195.45 5.69847 195.45 5.52033V1.21749C195.45 1.16268 195.478 1.12842 195.539 1.12842H196.601C196.656 1.12842 196.69 1.15582 196.69 1.21749V5.93828C196.69 6.31512 196.615 6.58918 196.457 6.76733C196.3 6.94547 196.039 7.03454 195.676 7.03454H191.634C191.579 7.03454 191.545 7.00714 191.545 6.94547V6.06846C191.545 6.01365 191.572 5.97939 191.634 5.97939H193.018V2.44394C193.018 2.38912 193.045 2.35486 193.107 2.35486H194.169C194.224 2.35486 194.258 2.38227 194.258 2.44394V5.98624H194.244Z" fill="#344B61"/>
<path d="M197.814 1.13527H198.855C198.903 1.13527 198.945 1.17638 198.945 1.22434V6.95232C198.945 7.00028 198.903 7.04139 198.855 7.04139H197.814C197.766 7.04139 197.725 7.00028 197.725 6.95232V1.21749C197.725 1.16953 197.766 1.12842 197.814 1.12842V1.13527Z" fill="#344B61"/>
<path d="M204.666 7.09628C204.405 7.09628 204.166 7.06202 203.946 7.00036C203.727 6.93869 203.535 6.82907 203.378 6.67833C203.336 6.74 203.295 6.78796 203.247 6.82907C203.199 6.86333 203.158 6.90444 203.11 6.94554C203.069 6.98665 203.028 7.04147 203.001 7.10313C202.973 7.1648 202.96 7.24702 202.96 7.34979V8.81605H201.726V7.1648C201.726 6.9661 201.747 6.80851 201.795 6.68518C201.843 6.56185 201.898 6.45908 201.973 6.37001C202.048 6.28093 202.124 6.21927 202.206 6.16446C202.288 6.10964 202.37 6.05483 202.446 6.00002C202.521 5.9452 202.59 5.88354 202.644 5.81502C202.699 5.74651 202.734 5.65743 202.747 5.54781C202.747 5.49299 202.74 5.43818 202.74 5.38337V5.19837C202.74 4.81468 202.795 4.49951 202.898 4.24599C203.001 3.99248 203.145 3.79378 203.323 3.64305C203.501 3.49231 203.706 3.38269 203.939 3.32102C204.172 3.25936 204.412 3.2251 204.673 3.2251C204.933 3.2251 205.173 3.25936 205.406 3.32102C205.639 3.38269 205.844 3.49231 206.022 3.64305C206.2 3.79378 206.337 3.99248 206.447 4.24599C206.55 4.49951 206.605 4.81468 206.605 5.19837C206.605 5.23948 206.605 5.28059 206.605 5.31485C206.605 5.34911 206.605 5.39022 206.605 5.42448C206.618 5.61632 206.673 5.75336 206.769 5.84243C206.865 5.9315 206.995 5.97946 207.146 5.97946H207.386C207.502 5.97946 207.591 6.02057 207.646 6.10279C207.701 6.18501 207.735 6.31519 207.735 6.50019C207.735 6.84962 207.619 7.02776 207.386 7.02776C207.283 7.02776 207.173 7.02776 207.071 7.01406C206.961 7.00721 206.858 6.98665 206.755 6.9524C206.653 6.91814 206.557 6.87018 206.461 6.80166C206.365 6.73314 206.283 6.64407 206.207 6.52759C206.036 6.73314 205.817 6.88388 205.55 6.9661C205.282 7.04832 204.995 7.08943 204.686 7.08943M204.686 4.28025C204.213 4.28025 203.981 4.57487 203.981 5.15726C203.981 5.48614 204.042 5.7191 204.159 5.84928C204.275 5.97946 204.453 6.04113 204.693 6.04113C204.933 6.04113 205.111 5.97946 205.228 5.84928C205.344 5.7191 205.399 5.48614 205.399 5.15726C205.399 4.57487 205.166 4.28025 204.693 4.28025" fill="#344B61"/>
<path d="M208.338 3.47188C208.338 3.41707 208.366 3.38281 208.427 3.38281H209.469C209.524 3.38281 209.558 3.41022 209.558 3.47188V5.52053C209.571 5.66441 209.633 5.78089 209.743 5.86311C209.859 5.94533 210.017 5.98644 210.216 5.98644H210.414C210.531 5.98644 210.62 6.02755 210.675 6.10977C210.729 6.19199 210.764 6.32217 210.764 6.50717C210.764 6.8566 210.647 7.03474 210.414 7.03474C210.181 7.03474 210.003 7.00734 209.839 6.95937C209.674 6.90456 209.544 6.78808 209.434 6.60309C209.345 6.78808 209.208 6.90456 209.023 6.95937C208.845 7.01419 208.592 7.03474 208.277 7.03474H207.379C207.262 7.03474 207.173 7.00048 207.119 6.92512C207.064 6.84975 207.03 6.71957 207.03 6.52087C207.03 6.32217 207.057 6.18514 207.112 6.10292C207.167 6.0207 207.256 5.97959 207.379 5.97959H207.92C208.105 5.97959 208.222 5.92478 208.27 5.822C208.318 5.71237 208.338 5.53423 208.338 5.27387V3.47188ZM207.79 8.81617C207.735 8.81617 207.701 8.78877 207.701 8.7271V7.8775C207.701 7.82268 207.728 7.78842 207.79 7.78842H208.66C208.715 7.78842 208.749 7.81583 208.749 7.8775V8.7271C208.749 8.78191 208.722 8.81617 208.66 8.81617H207.79ZM209.126 8.81617C209.071 8.81617 209.037 8.78877 209.037 8.7271V7.8775C209.037 7.82268 209.064 7.78842 209.126 7.78842H210.003C210.058 7.78842 210.092 7.81583 210.092 7.8775V8.7271C210.092 8.78191 210.065 8.81617 210.003 8.81617H209.126Z" fill="#344B61"/>
<path d="M210.818 5.98624C210.921 5.98624 211.003 5.96568 211.058 5.91772C211.113 5.86976 211.161 5.8081 211.195 5.72588C211.23 5.64366 211.243 5.54773 211.25 5.44496C211.25 5.33533 211.257 5.22571 211.257 5.10238V1.21749C211.271 1.16268 211.298 1.12842 211.346 1.12842H212.388C212.442 1.12842 212.477 1.15582 212.477 1.21749V3.65668C212.744 3.5402 213.032 3.43742 213.347 3.3552C213.662 3.27298 213.984 3.23188 214.327 3.23188C215.025 3.23188 215.56 3.40317 215.937 3.7389C216.307 4.07463 216.492 4.60221 216.492 5.32163C216.492 5.35589 216.492 5.39015 216.492 5.4244C216.492 5.45866 216.492 5.48607 216.492 5.51347C216.505 5.65736 216.567 5.77384 216.677 5.85606C216.786 5.93828 216.951 5.97939 217.149 5.97939H217.348C217.465 5.97939 217.554 6.0205 217.608 6.10272C217.663 6.18494 217.698 6.31512 217.698 6.50011C217.698 6.84955 217.581 7.02769 217.348 7.02769C217.101 7.02769 216.882 6.99343 216.704 6.91806C216.519 6.8427 216.375 6.69881 216.266 6.47956C216.135 6.70566 215.944 6.84955 215.704 6.92492C215.457 6.99343 215.135 7.02769 214.724 7.02769H212.648C212.415 7.02769 212.25 6.96602 212.155 6.84269C212.093 6.91806 211.956 6.96602 211.757 6.99343C211.558 7.01399 211.353 7.02769 211.134 7.02769H210.455C210.339 7.02769 210.25 6.99343 210.195 6.91806C210.14 6.8427 210.106 6.70566 210.106 6.50696C210.106 6.28771 210.133 6.14383 210.181 6.07531C210.236 6.00679 210.325 5.97254 210.448 5.97254H210.825L210.818 5.98624ZM214.1 4.28703C213.806 4.28703 213.518 4.32814 213.23 4.41036C212.949 4.49258 212.696 4.58165 212.477 4.67757V5.65051C212.477 5.77384 212.47 5.88346 212.449 5.98624H214.176C214.388 5.98624 214.566 5.98624 214.703 5.96568C214.84 5.95198 214.943 5.92457 215.019 5.87661C215.094 5.82865 215.142 5.76013 215.169 5.65736C215.197 5.56144 215.21 5.4244 215.21 5.24626C215.21 5.08867 215.19 4.95164 215.156 4.82831C215.121 4.70498 215.06 4.60221 214.977 4.51999C214.895 4.43777 214.779 4.3761 214.635 4.33499C214.491 4.29388 214.313 4.27333 214.087 4.27333M213.813 2.4919C213.758 2.4919 213.724 2.46449 213.724 2.40283V1.55322C213.724 1.49841 213.751 1.46415 213.813 1.46415H214.888C214.943 1.46415 214.977 1.49156 214.977 1.55322V2.40283C214.977 2.45764 214.95 2.4919 214.888 2.4919H213.813Z" fill="#344B61"/>
<path d="M219.178 6.60303C219.082 6.78117 218.945 6.89765 218.766 6.95247C218.595 7.00728 218.348 7.03469 218.033 7.03469H217.341C217.225 7.03469 217.136 7.01413 217.081 6.97987C217.026 6.94561 216.992 6.85654 216.992 6.73321C216.992 6.65784 216.992 6.57563 217.012 6.49341C217.026 6.40433 217.047 6.32211 217.074 6.2536C217.101 6.17823 217.143 6.11656 217.184 6.0686C217.232 6.02064 217.286 5.99323 217.355 5.99323H217.643C217.821 5.99323 217.937 5.94527 217.985 5.8425C218.033 5.73972 218.061 5.56158 218.061 5.30122V3.47868C218.061 3.43072 218.102 3.40331 218.184 3.40331C218.266 3.40331 218.342 3.39646 218.403 3.39646H219.205C219.26 3.39646 219.294 3.42387 219.294 3.48553V5.53417C219.308 5.67806 219.369 5.79454 219.479 5.87676C219.589 5.95898 219.746 6.00009 219.952 6.00009H220.15C220.267 6.00009 220.356 6.0412 220.411 6.12342C220.466 6.20564 220.5 6.33582 220.5 6.52081C220.5 6.87025 220.383 7.04839 220.15 7.04839C219.917 7.04839 219.739 7.02098 219.575 6.97302C219.41 6.91821 219.273 6.80173 219.164 6.61673M218.129 2.51945C218.074 2.51945 218.04 2.49204 218.04 2.43038V1.58077C218.04 1.52596 218.068 1.4917 218.129 1.4917H219.205C219.26 1.4917 219.294 1.51911 219.294 1.58077V2.43038C219.294 2.48519 219.267 2.51945 219.205 2.51945H218.129Z" fill="#344B61"/>
<path d="M220.123 7.03472C220.007 7.03472 219.917 7.00046 219.863 6.92509C219.808 6.84972 219.774 6.72639 219.774 6.5414C219.774 6.17141 219.89 5.98641 220.123 5.98641H220.664C220.808 5.98641 220.918 5.95216 220.979 5.88364C221.048 5.81512 221.082 5.69865 221.082 5.5205V3.46501C221.082 3.41019 221.11 3.37593 221.171 3.37593H222.213C222.268 3.37593 222.302 3.40334 222.302 3.46501V5.93845C222.302 6.31529 222.226 6.58936 222.069 6.7675C221.911 6.94565 221.658 7.03472 221.295 7.03472H220.13H220.123ZM220.52 2.50578C220.466 2.50578 220.431 2.47837 220.431 2.4167V1.5671C220.431 1.51229 220.459 1.47803 220.52 1.47803H221.391C221.445 1.47803 221.48 1.50543 221.48 1.5671V2.4167C221.48 2.47152 221.452 2.50578 221.391 2.50578H220.52ZM221.856 2.50578C221.802 2.50578 221.767 2.47837 221.767 2.4167V1.5671C221.767 1.51229 221.795 1.47803 221.856 1.47803H222.733C222.788 1.47803 222.823 1.50543 222.823 1.5671V2.4167C222.823 2.47152 222.795 2.50578 222.733 2.50578H221.856Z" fill="#344B61"/>
<path d="M227.893 3.23188V2.86189C227.893 2.80707 227.92 2.77281 227.982 2.77281H229.044C229.099 2.77281 229.133 2.80022 229.133 2.86189V5.52718C229.133 5.69847 229.167 5.8218 229.236 5.89032C229.304 5.95883 229.407 5.99309 229.551 5.99309H229.818C230.051 5.99309 230.168 6.17123 230.168 6.52067C230.168 6.72622 230.14 6.86325 230.085 6.93177C230.031 7.00713 229.941 7.04139 229.818 7.04139H228.914C228.633 7.04139 228.407 6.99343 228.249 6.90436C228.092 6.81529 227.982 6.644 227.934 6.39734C227.804 6.50011 227.66 6.58233 227.489 6.63029C227.317 6.68511 227.146 6.70566 226.961 6.70566C226.735 6.70566 226.522 6.6714 226.317 6.60974C226.111 6.54807 225.933 6.4453 225.776 6.31512C225.618 6.18494 225.495 6.00679 225.406 5.79439C225.317 5.58199 225.269 5.32163 225.269 5.0133C225.269 4.66387 225.317 4.3761 225.419 4.15C225.522 3.92389 225.652 3.7389 225.817 3.60186C225.981 3.46483 226.173 3.36891 226.379 3.3141C226.591 3.25928 226.803 3.23188 227.023 3.23188H227.893ZM226.132 2.15617C226.077 2.15617 226.043 2.12876 226.043 2.06709V1.21749C226.043 1.16268 226.07 1.12842 226.132 1.12842H227.002C227.057 1.12842 227.091 1.15582 227.091 1.21749V2.06709C227.091 2.12191 227.064 2.15617 227.002 2.15617H226.132ZM227.18 5.65051C227.399 5.65051 227.571 5.58884 227.701 5.46551C227.831 5.34218 227.893 5.14349 227.893 4.88312V4.28703H227.201C226.982 4.28703 226.803 4.34184 226.673 4.44462C226.543 4.54739 226.475 4.73924 226.475 5.02016C226.475 5.25996 226.543 5.4244 226.673 5.52033C226.803 5.61625 226.975 5.66421 227.173 5.66421M227.461 2.16987C227.406 2.16987 227.372 2.14246 227.372 2.0808V1.21749C227.372 1.16268 227.399 1.12842 227.461 1.12842H228.338C228.393 1.12842 228.427 1.15582 228.427 1.21749V2.06709C228.427 2.12191 228.4 2.15617 228.338 2.15617H227.461V2.16987Z" fill="#344B61"/>
<path d="M231.743 6.60282C231.648 6.78097 231.51 6.89744 231.332 6.95226C231.161 7.00707 230.914 7.03448 230.606 7.03448H229.914C229.798 7.03448 229.708 7.01392 229.654 6.97966C229.599 6.94541 229.565 6.85633 229.565 6.733C229.565 6.65764 229.565 6.57542 229.585 6.4932C229.599 6.40412 229.619 6.32876 229.647 6.25339C229.674 6.17802 229.715 6.11636 229.756 6.06839C229.804 6.02043 229.859 5.99303 229.928 5.99303H230.216C230.394 5.99303 230.51 5.94506 230.558 5.84229C230.606 5.73951 230.633 5.56137 230.633 5.30101V3.47847C230.633 3.43051 230.675 3.4031 230.757 3.4031C230.839 3.4031 230.914 3.39625 230.976 3.39625H231.778C231.832 3.39625 231.867 3.42366 231.867 3.48532V5.53397C231.88 5.67785 231.942 5.79433 232.052 5.87655C232.161 5.95877 232.326 5.99988 232.525 5.99988H232.723C232.84 5.99988 232.929 6.04099 232.984 6.12321C233.038 6.20543 233.073 6.33561 233.073 6.5206C233.073 6.87004 232.956 7.04818 232.723 7.04818C232.49 7.04818 232.312 7.02077 232.148 6.97281C231.983 6.918 231.846 6.80152 231.737 6.61653M230.544 2.01907C230.51 1.96425 230.483 1.89574 230.455 1.82722C230.435 1.7587 230.421 1.67648 230.421 1.58741C230.421 1.48464 230.442 1.38186 230.476 1.27909C230.51 1.17631 230.572 1.08724 230.647 1.00502C230.723 0.922803 230.825 0.861138 230.949 0.806325C231.072 0.758364 231.223 0.730957 231.394 0.730957C231.579 0.730957 231.743 0.765215 231.894 0.833732C232.045 0.902248 232.148 0.984468 232.223 1.08724C232.244 1.11465 232.244 1.14206 232.216 1.17631L231.935 1.47094C231.935 1.47094 231.887 1.49149 231.86 1.45038C231.798 1.39557 231.73 1.34761 231.661 1.31335C231.593 1.27909 231.517 1.25853 231.421 1.25853C231.305 1.25853 231.216 1.29279 231.147 1.35446C231.079 1.41612 231.045 1.50519 231.045 1.61482C231.045 1.72445 231.072 1.79981 231.12 1.86833C231.175 1.93 231.23 1.97796 231.291 2.01907H232.202C232.237 2.01907 232.257 2.03962 232.257 2.08073V2.49183C232.257 2.53294 232.237 2.5535 232.202 2.5535H230.222C230.188 2.5535 230.168 2.53294 230.168 2.49183V2.08073C230.168 2.03962 230.188 2.01907 230.222 2.01907H230.524H230.544Z" fill="#344B61"/>
<path d="M233.669 3.47188C233.669 3.41707 233.696 3.38281 233.758 3.38281H234.799C234.854 3.38281 234.888 3.41022 234.888 3.47188V5.52053C234.902 5.66441 234.964 5.78089 235.073 5.86311C235.19 5.94533 235.347 5.98644 235.546 5.98644H235.745C235.861 5.98644 235.95 6.02755 236.005 6.10977C236.06 6.19199 236.094 6.32217 236.094 6.50717C236.094 6.8566 235.978 7.03474 235.745 7.03474C235.512 7.03474 235.334 7.00734 235.169 6.95937C235.005 6.90456 234.875 6.78808 234.765 6.60309C234.676 6.78808 234.539 6.90456 234.354 6.95937C234.176 7.01419 233.922 7.03474 233.607 7.03474H232.71C232.593 7.03474 232.504 7.00048 232.449 6.92512C232.394 6.84975 232.36 6.71957 232.36 6.52087C232.36 6.32217 232.387 6.18514 232.442 6.10292C232.497 6.0207 232.586 5.97959 232.71 5.97959H233.251C233.436 5.97959 233.552 5.92478 233.6 5.822C233.648 5.71237 233.669 5.53423 233.669 5.27387V3.47188ZM233.121 8.81617C233.066 8.81617 233.032 8.78877 233.032 8.7271V7.8775C233.032 7.82268 233.059 7.78842 233.121 7.78842H233.991C234.046 7.78842 234.08 7.81583 234.08 7.8775V8.7271C234.08 8.78191 234.052 8.81617 233.991 8.81617H233.121ZM234.457 8.81617C234.402 8.81617 234.368 8.78877 234.368 8.7271V7.8775C234.368 7.82268 234.395 7.78842 234.457 7.78842H235.334C235.389 7.78842 235.423 7.81583 235.423 7.8775V8.7271C235.423 8.78191 235.395 8.81617 235.334 8.81617H234.457Z" fill="#344B61"/>
<path d="M235.752 7.03444C235.635 7.03444 235.546 6.99333 235.491 6.91796C235.436 6.84259 235.402 6.70556 235.402 6.52057C235.402 6.33557 235.43 6.19169 235.484 6.10947C235.539 6.02725 235.628 5.98614 235.752 5.98614H236.601C236.519 5.81485 236.478 5.6093 236.478 5.37634C236.478 5.14338 236.519 4.93784 236.594 4.76654C236.67 4.6021 236.773 4.46507 236.896 4.35544C237.019 4.24582 237.163 4.1773 237.328 4.12249C237.492 4.07453 237.656 4.04712 237.835 4.04712C238.266 4.04712 238.609 4.1499 238.862 4.3623C239.109 4.5747 239.239 4.91043 239.239 5.36264C239.239 5.48597 239.225 5.59559 239.191 5.69837C239.157 5.80114 239.123 5.89021 239.082 5.97243C239.342 5.97243 239.513 5.89022 239.602 5.73263C239.691 5.57504 239.732 5.37634 239.732 5.14338C239.732 4.91043 239.698 4.72543 239.623 4.56099C239.547 4.39655 239.452 4.26637 239.321 4.1636C239.191 4.06082 239.034 3.98546 238.855 3.93064C238.677 3.87583 238.472 3.85527 238.252 3.85527C238.054 3.85527 237.848 3.86898 237.629 3.90324C237.41 3.93749 237.197 3.98546 236.992 4.04712C236.971 4.06082 236.937 4.06768 236.903 4.07453C236.868 4.07453 236.848 4.06768 236.834 4.03342L236.649 3.38251C236.636 3.34825 236.635 3.32085 236.635 3.29344C236.635 3.26603 236.663 3.24548 236.704 3.23177C236.985 3.12215 237.266 3.03308 237.54 2.97141C237.814 2.90975 238.143 2.87549 238.52 2.87549C239.006 2.87549 239.41 2.93715 239.732 3.06733C240.054 3.19752 240.308 3.36881 240.5 3.58121C240.685 3.79361 240.822 4.03342 240.897 4.30063C240.973 4.56785 241.007 4.84191 241.007 5.11598C241.007 5.43801 240.979 5.72578 240.918 5.96558C240.863 6.20539 240.76 6.40409 240.63 6.56168C240.493 6.71926 240.315 6.83574 240.089 6.91111C239.863 6.98648 239.589 7.02074 239.26 7.02074H235.758L235.752 7.03444ZM237.848 4.79395C237.691 4.79395 237.56 4.84876 237.471 4.95154C237.382 5.06117 237.341 5.2119 237.341 5.4106C237.341 5.6093 237.382 5.76003 237.465 5.85596C237.547 5.95188 237.656 6.00669 237.8 6.01354H237.896C238.047 5.99984 238.157 5.94503 238.232 5.85596C238.307 5.76003 238.342 5.6093 238.342 5.4106C238.342 5.2119 238.3 5.06117 238.218 4.95154C238.136 4.84191 238.013 4.79395 237.855 4.79395" fill="#344B61"/>
<path d="M11.4628 1.34082H0V5.397H6.25556C6.25556 5.397 6.25556 5.43811 6.25556 5.45866V24.6638H10.9421V5.397H17.6019V1.34082H11.4628Z" fill="#344B61"/>
<path d="M25.1387 1.34082H31.4559C36.396 1.34082 40.4316 5.30108 40.4316 10.2069V15.8047C40.4316 20.7104 36.396 24.6707 31.4559 24.6707H20.7331V5.45866C20.7331 3.19762 22.6995 1.34082 25.1387 1.34082ZM35.7382 10.2069C35.7382 7.56897 33.8335 5.397 31.4559 5.397H25.4196V20.6145H31.4559C33.8335 20.6145 35.7382 18.4425 35.7382 15.8047V10.2069Z" fill="#344B61"/>
<path d="M11.5656 1.32715H0.102768V5.38333H6.35833C6.35833 5.38333 6.35833 5.42444 6.35833 5.44499V24.6502H11.0449V5.38333H17.7047V1.32715H11.5656Z" fill="#344B61"/>
<path d="M25.2415 1.32715H31.5587C36.4988 1.32715 40.5344 5.2874 40.5344 10.1932V15.791C40.5344 20.6968 36.4988 24.657 31.5587 24.657H20.8359V5.44499C20.8359 3.18395 22.8023 1.32715 25.2415 1.32715ZM35.841 10.1932C35.841 7.5553 33.9362 5.38333 31.5587 5.38333H25.5224V20.6008H31.5587C33.9362 20.6008 35.841 18.4289 35.841 15.791V10.1932Z" fill="#344B61"/>
<path d="M58.1294 17.5793C61.5073 16.5721 63.8848 13.8999 63.8848 10.1315V9.25449C63.8848 4.34871 59.8492 1.33398 54.9091 1.33398H48.5919C46.1527 1.33398 44.1863 3.19078 44.1863 5.45183V24.657H48.8728V18.0589H52.7783L58.5611 24.657H64.4055L58.1226 17.5861L58.1294 17.5793ZM48.8728 13.9958V5.38331H54.9091C57.2867 5.38331 59.1914 6.60976 59.1914 9.24764V10.1247C59.1914 12.7625 57.2867 13.989 54.9091 13.989H48.8728V13.9958Z" fill="#344B61"/>
<path d="M95.2106 1.34082H94.635V24.6638H95.2106V1.34082Z" fill="#344B61"/>
</g>
<defs>
<clipPath id="clip0_2319_5174">
<rect width="241" height="23.9945" fill="white" transform="translate(0 0.717285)"/>
</clipPath>
</defs>
</svg>
